<svg width="182" height="37" viewBox="0 0 182 37" fill="none" xmlns="http://www.w3.org/2000/svg">
<path d="M3.89874 9.0375L9.51375 2.5925V0.2175H0.0987549V2.7375H5.62375L0.0437469 9.235V11.5575H9.65625V9.0375H3.89626H3.89874ZM15.9238 7.47C15.9238 8.695 15.5638 9.485 14.6463 9.485C13.7288 9.485 13.4588 8.89 13.4588 7.81V3.5275H10.5412V8.585C10.5412 10.26 11.2062 11.77 13.4037 11.77C14.6087 11.77 15.4913 11.2475 15.9238 10.3475V11.5525H18.8387V3.5275H15.9238V7.47ZM26.2912 3.6175C25.9587 3.4025 25.5688 3.2975 25.1763 3.3125C24.1663 3.325 23.2812 3.9875 22.9812 4.95V3.5275H20.0638V11.555H22.9787V7.8825C22.9787 6.5325 23.6438 6.0275 24.7238 6.0275C25.2088 6.01 25.6887 6.1275 26.1087 6.37L26.2888 3.615L26.2912 3.6175ZM32.3387 8.6925C32.0687 9.3225 31.5637 9.5925 30.7737 9.5925C29.8912 9.5925 29.1713 9.125 29.0988 8.135H34.7312V7.325C34.7312 5.1475 33.3088 3.31 30.6263 3.31C28.1238 3.31 26.2513 5.1275 26.2513 7.665C26.2513 10.2025 28.0863 11.77 30.6613 11.77C32.7863 11.77 34.2613 10.745 34.6763 8.9075L32.3387 8.6925ZM29.1337 6.7325C29.2412 5.9775 29.6562 5.4 30.5912 5.4C31.3162 5.37 31.9288 5.935 31.9588 6.6625C31.9588 6.685 31.9588 6.71 31.9588 6.7325H29.1337ZM41.3562 7.4875C41.3562 6.335 41.9863 5.58 42.9763 5.58C44.1113 5.58 44.6313 6.39 44.6313 7.5425C44.6313 8.695 44.1088 9.5225 42.9763 9.5225C41.9863 9.5225 41.3562 8.7675 41.3562 7.5975V7.4875ZM41.1938 10.17C41.6438 11.1425 42.6512 11.7725 43.9487 11.7725C46.3612 11.7725 47.5663 9.9175 47.5663 7.5425C47.5663 5.1675 46.3613 3.3125 44.0013 3.3125C42.6513 3.3125 41.7512 3.96 41.3562 4.915V0.2175H38.4413V11.5575H40.6913L41.1962 10.1725L41.1938 10.17ZM48.3587 3.5275V11.555H51.2737V3.5275H48.3587ZM48.3387 2.7725H51.2912V0.2175H48.3387V2.7725ZM58.2587 7.5975C58.2587 8.7675 57.6287 9.5225 56.6562 9.5225C55.5037 9.5225 55.0013 8.7125 55.0013 7.5425C55.0013 6.3725 55.5062 5.58 56.6562 5.58C57.6287 5.58 58.2587 6.335 58.2587 7.4875V7.5975ZM58.2587 11.5575H61.1738V0.2175H58.2587V4.915C57.8812 3.96 56.9638 3.3125 55.6313 3.3125C53.2563 3.3125 52.0663 5.185 52.0663 7.5425C52.0663 9.9 53.2538 11.7725 55.6313 11.7725C56.9638 11.7725 57.8812 11.125 58.2587 10.1875V11.5575ZM67.0412 8.21C67.0412 9.255 66.3763 9.865 65.5462 9.865C65.0612 9.865 64.7363 9.595 64.7363 9.18C64.7363 8.6575 65.1513 8.4425 65.8513 8.2975L67.0388 8.0825V8.2075L67.0412 8.21ZM69.9037 6.4625C69.9037 4.23 68.3387 3.3125 66.2137 3.3125C63.8012 3.3125 62.4888 4.5375 62.2363 6.3L64.9362 6.48C65.0612 5.885 65.3863 5.4725 66.0338 5.4725C66.7363 5.4725 67.0412 5.8675 67.0412 6.535V6.66L64.7912 7.0375C63.0462 7.3425 61.9312 8.01 61.9312 9.5575C61.9312 10.925 62.9563 11.735 64.5213 11.735C65.7988 11.735 66.7162 11.25 67.1862 10.3125C67.4562 11.23 68.2313 11.735 69.2213 11.735C69.8662 11.755 70.5038 11.5725 71.0388 11.2125V9.665C70.8338 9.75 70.6138 9.7925 70.3913 9.79C70.0863 9.79 69.9062 9.61 69.9062 9.195V6.46L69.9037 6.4625ZM71.5237 3.53V11.5575H74.4388V3.5275H71.5237V3.53ZM71.5063 2.7725H74.4588V0.2175H71.5063V2.7725ZM80.3087 8.2075C80.3087 9.2525 79.6438 9.8625 78.8138 9.8625C78.3288 9.8625 78.0038 9.5925 78.0038 9.1775C78.0038 8.655 78.4187 8.44 79.1187 8.295L80.3062 8.08V8.205L80.3087 8.2075ZM83.1687 6.4625C83.1687 4.23 81.6037 3.3125 79.4787 3.3125C77.0662 3.3125 75.7538 4.5375 75.5013 6.3L78.2012 6.48C78.3262 5.885 78.6513 5.4725 79.2988 5.4725C80.0013 5.4725 80.3062 5.8675 80.3062 6.535V6.66L78.0562 7.0375C76.3112 7.3425 75.1938 8.01 75.1938 9.5575C75.1938 10.925 76.2188 11.735 77.7863 11.735C79.0638 11.735 79.9812 11.25 80.4512 10.3125C80.7212 11.23 81.4963 11.735 82.4863 11.735C83.1312 11.755 83.7688 11.5725 84.3038 11.2125V9.665C84.0988 9.75 83.8788 9.7925 83.6562 9.79C83.3512 9.79 83.1712 9.61 83.1712 9.195V6.46L83.1687 6.4625ZM84.8087 11.5575H86.1588C86.1588 12.2775 85.6537 12.6375 84.8087 12.655V14.06C86.8062 14.005 87.9037 13.1425 87.9037 11.36V8.4625H84.8087V11.5575ZM94.9962 5.635L91.4312 9.56V11.5575H98.6313V9.4525H94.9238L98.5412 5.51V3.53H91.5038V5.635H94.9962ZM104.824 7.47C104.824 8.695 104.464 9.485 103.546 9.485C102.629 9.485 102.359 8.89 102.359 7.81V3.5275H99.4438V8.585C99.4438 10.26 100.109 11.77 102.306 11.77C103.511 11.77 104.394 11.2475 104.826 10.3475V11.5525H107.741V3.5275H104.826V7.47H104.824ZM115.191 3.6175C114.859 3.4025 114.469 3.2975 114.076 3.3125C113.066 3.325 112.181 3.9875 111.881 4.95V3.5275H108.966V11.555H111.884V7.8825C111.884 6.5325 112.549 6.0275 113.629 6.0275C114.114 6.01 114.594 6.1275 115.014 6.37L115.194 3.615L115.191 3.6175ZM121.239 8.6925C120.969 9.3225 120.464 9.5925 119.674 9.5925C118.791 9.5925 118.071 9.125 117.999 8.135H123.634V7.325C123.634 5.1475 122.211 3.31 119.529 3.31C117.026 3.31 115.154 5.1275 115.154 7.665C115.154 10.2225 116.991 11.77 119.566 11.77C121.691 11.77 123.166 10.745 123.581 8.9075L121.241 8.69L121.239 8.6925ZM118.036 6.7325C118.144 5.9775 118.559 5.4 119.494 5.4C120.219 5.37 120.831 5.935 120.861 6.6625C120.861 6.685 120.861 6.71 120.861 6.7325H118.036ZM133.931 11.5575V2.7375H137.874V0.2175H127.001V2.7375H130.889V11.5575H133.931ZM149.556 5.8875C149.556 2.395 146.964 0.00250006 143.671 0.00250006C140.379 0.00250006 137.781 2.3975 137.781 5.8875C137.781 9.3775 140.374 11.7725 143.669 11.7725C146.964 11.7725 149.554 9.3775 149.554 5.8875H149.556ZM146.406 5.8875C146.406 7.8125 145.344 9.0725 143.671 9.0725C141.999 9.0725 140.931 7.8125 140.931 5.8875C140.931 3.9625 141.994 2.7025 143.666 2.7025C145.339 2.7025 146.404 3.9625 146.404 5.8875H146.406ZM153.461 5.5625V2.665H155.261C156.629 2.665 157.151 3.17 157.151 4.1225C157.151 5.075 156.629 5.5625 155.261 5.5625H153.461ZM153.461 8.01H155.406C158.376 8.01 160.104 6.625 160.104 4.105C160.104 1.585 158.376 0.2175 155.406 0.2175H150.419V11.5575H153.461V8.01ZM172.091 5.885C172.091 2.3925 169.499 0 166.206 0C162.914 0 160.321 2.395 160.321 5.885C160.321 9.375 162.911 11.7725 166.206 11.7725C169.501 11.7725 172.091 9.3775 172.091 5.8875V5.885ZM168.941 5.885C168.941 7.81 167.879 9.07 166.206 9.07C164.534 9.07 163.471 7.81 163.471 5.885C163.471 3.96 164.534 2.7 166.206 2.7C167.879 2.7 168.941 3.9625 168.941 5.8875V5.885ZM177.529 8.2075C177.529 9.2525 176.864 9.8625 176.034 9.8625C175.549 9.8625 175.224 9.5925 175.224 9.1775C175.224 8.655 175.639 8.44 176.339 8.295L177.526 8.08V8.205L177.529 8.2075ZM180.389 6.46C180.389 4.2275 178.824 3.31 176.699 3.31C174.286 3.31 172.974 4.535 172.721 6.2975L175.421 6.4775C175.546 5.8825 175.871 5.47 176.519 5.47C177.221 5.47 177.526 5.865 177.526 6.5325V6.6575L175.276 7.035C173.531 7.34 172.414 8.0075 172.414 9.555C172.414 10.9225 173.439 11.7325 175.006 11.7325C176.284 11.7325 177.201 11.2475 177.671 10.31C177.939 11.23 178.714 11.735 179.704 11.735C180.349 11.755 180.986 11.5725 181.521 11.2125V9.665C181.316 9.75 181.096 9.7925 180.874 9.79C180.569 9.79 180.389 9.61 180.389 9.195V6.4575V6.46Z" fill="black"/>
<path d="M19.655 33.6176V24.7976H23.5975V22.2776H12.725V24.7976H16.6125V33.6176H19.655ZM28.87 29.5301C28.87 30.7551 28.51 31.5451 27.5925 31.5451C26.675 31.5451 26.405 30.9501 26.405 29.8701V25.5876H23.49V30.6451C23.49 32.3201 24.155 33.8301 26.35 33.8301C27.555 33.8301 28.4375 33.3076 28.87 32.4076V33.6126H31.7875V25.5851H28.8725V29.5276L28.87 29.5301ZM36.1775 31.3851C36.1775 33.2751 37.455 33.8326 38.805 33.8326C39.6675 33.8751 40.52 33.6226 41.2175 33.1126V31.2226C40.825 31.3951 40.4025 31.4851 39.975 31.4926C39.38 31.4926 39.0575 31.2226 39.0575 30.5376V27.6026H41.145V25.5876H39.0575V23.3726H37.2225L36.9525 24.4176C36.755 25.1551 36.5025 25.5876 35.6925 25.7126L35.0975 25.8026V27.6026H36.1775V31.3826V31.3851ZM48.2025 25.6801C47.87 25.4651 47.48 25.3601 47.0875 25.3751C46.0775 25.3876 45.1925 26.0501 44.8925 27.0126V25.5901H41.975V33.6176H44.89V29.9451C44.89 28.5951 45.555 28.0901 46.635 28.0901C47.12 28.0726 47.6 28.1901 48.02 28.4326L48.2 25.6776L48.2025 25.6801ZM53.2075 30.2701C53.2075 31.3151 52.5425 31.9251 51.7125 31.9251C51.2275 31.9251 50.9025 31.6551 50.9025 31.2401C50.9025 30.7176 51.3175 30.5026 52.0175 30.3576L53.205 30.1426V30.2676L53.2075 30.2701ZM56.07 28.5226C56.07 26.2901 54.505 25.3726 52.38 25.3726C49.9675 25.3726 48.655 26.5976 48.4025 28.3601L51.1025 28.5401C51.2275 27.9451 51.5525 27.5326 52.2 27.5326C52.9025 27.5326 53.2075 27.9276 53.2075 28.5951V28.7201L50.9575 29.0976C49.2125 29.4026 48.095 30.0701 48.095 31.6176C48.095 32.9851 49.12 33.7951 50.6875 33.7951C51.965 33.7951 52.8825 33.3101 53.3525 32.3726C53.6225 33.2901 54.395 33.7951 55.385 33.7951C56.03 33.8151 56.6675 33.6326 57.2025 33.2726V31.7251C56.9975 31.8101 56.7775 31.8526 56.555 31.8501C56.25 31.8501 56.07 31.6701 56.07 31.2551V28.5201V28.5226ZM61.3975 36.4976L66.005 25.5876H63.1425L61.325 30.2851H61.2525L59.47 25.5876H56.41L59.685 33.7226L58.5325 36.4951H61.395L61.3975 36.4976ZM71.7825 30.7551C71.5125 31.3851 71.0075 31.6551 70.2175 31.6551C69.335 31.6551 68.615 31.1876 68.5425 30.1976H74.1775V29.3876C74.1775 27.2101 72.755 25.3726 70.0725 25.3726C67.57 25.3726 65.6975 27.1901 65.6975 29.7276C65.6975 32.2826 67.535 33.8301 70.1075 33.8301C72.2325 33.8301 73.7075 32.8051 74.1225 30.9676L71.7825 30.7526V30.7551ZM68.5775 28.7926C68.685 28.0376 69.1 27.4601 70.035 27.4601C70.76 27.4301 71.3725 27.9951 71.4025 28.7226C71.4025 28.7451 71.4025 28.7701 71.4025 28.7926H68.5775ZM74.6625 29.6026C74.6625 32.1576 76.5175 33.8326 79.055 33.8326C81.5925 33.8326 82.8175 32.2851 83.015 30.3401L80.62 30.1601C80.4225 31.1501 79.935 31.6351 79.09 31.6351C78.245 31.6351 77.595 31.0401 77.595 29.6001C77.595 28.1601 78.2075 27.5651 79.09 27.5651C79.9725 27.5651 80.4225 28.0326 80.62 29.0226L83.015 28.8601C82.8175 26.9351 81.4675 25.3676 79.055 25.3676C76.5175 25.3676 74.6625 27.0626 74.6625 29.6001V29.6026ZM84.0575 31.3851C84.0575 33.2751 85.335 33.8326 86.685 33.8326C87.5475 33.8751 88.4 33.6226 89.0975 33.1126V31.2226C88.705 31.3951 88.2825 31.4851 87.855 31.4926C87.26 31.4926 86.9375 31.2226 86.9375 30.5376V27.6051H89.025V25.5901H86.9375V23.3751H85.1025L84.8325 24.4201C84.635 25.1576 84.3825 25.5901 83.5725 25.7151L82.9775 25.8051V27.6051H84.0575V31.3851ZM92.3575 29.6026C92.3575 28.3976 92.79 27.5676 93.815 27.5676C94.84 27.5676 95.2725 28.3951 95.2725 29.6026C95.2725 30.8101 94.8225 31.6376 93.815 31.6376C92.79 31.6376 92.3575 30.8101 92.3575 29.6051V29.6026ZM98.2075 29.6026C98.2075 27.1176 96.425 25.3726 93.815 25.3726C91.205 25.3726 89.4225 27.1176 89.4225 29.6026C89.4225 32.0876 91.1875 33.8326 93.815 33.8326C96.425 33.8326 98.2075 32.1051 98.2075 29.6026ZM98.7475 33.6176H100.097C100.097 34.3376 99.5925 34.6976 98.7475 34.7151V36.1201C100.745 36.0651 101.842 35.2026 101.842 33.4201V30.5226H98.7475V33.6176ZM105.982 31.3851C105.982 33.2751 107.26 33.8326 108.61 33.8326C109.472 33.8751 110.325 33.6226 111.022 33.1126V31.2226C110.63 31.3951 110.207 31.4851 109.78 31.4926C109.185 31.4926 108.862 31.2226 108.862 30.5376V27.6026H110.95V25.5876H108.862V23.3726H107.027L106.757 24.4176C106.56 25.1551 106.307 25.5876 105.497 25.7126L104.902 25.8026V27.6026H105.982V31.3826V31.3851ZM117.07 29.5301C117.07 30.7551 116.71 31.5451 115.792 31.5451C114.875 31.5451 114.605 30.9501 114.605 29.8701V25.5876H111.69V30.6451C111.69 32.3201 112.355 33.8301 114.552 33.8301C115.757 33.8301 116.64 33.3076 117.072 32.4076V33.6126H119.987V25.5851H117.072V29.5276L117.07 29.5301ZM130.677 33.6176V24.7976H134.62V22.2776H123.75V24.7976H127.637V33.6176H130.677ZM146.302 27.9476C146.302 24.4551 143.71 22.0626 140.417 22.0626C137.125 22.0626 134.533 24.4576 134.533 27.9476C134.533 31.4376 137.122 33.8326 140.417 33.8326C143.712 33.8326 146.302 31.4376 146.302 27.9476ZM143.152 27.9476C143.152 29.8726 142.09 31.1326 140.417 31.1326C138.745 31.1326 137.682 29.8726 137.682 27.9476C137.682 26.0226 138.745 24.7626 140.417 24.7626C142.09 24.7626 143.152 26.0226 143.152 27.9476ZM150.21 27.6226V24.7251H152.01C153.377 24.7251 153.9 25.2301 153.9 26.1826C153.9 27.1351 153.377 27.6226 152.01 27.6226H150.21ZM150.21 30.0701H152.155C155.125 30.0701 156.852 28.6851 156.852 26.1651C156.852 23.6451 155.125 22.2776 152.155 22.2776H147.167V33.6176H150.21V30.0701ZM168.84 27.9451C168.84 24.4526 166.247 22.0601 162.955 22.0601C159.662 22.0601 157.07 24.4551 157.07 27.9451C157.07 31.4351 159.66 33.8326 162.955 33.8326C166.25 33.8326 168.84 31.4376 168.84 27.9476V27.9451ZM165.69 27.9451C165.69 29.8701 164.627 31.1301 162.955 31.1301C161.282 31.1301 160.22 29.8701 160.22 27.9451C160.22 26.0201 161.282 24.7601 162.955 24.7601C164.627 24.7601 165.69 26.0226 165.69 27.9476V27.9451Z" fill="black"/>
</svg>
