<svg width="42" height="30" viewBox="0 0 42 30" fill="none" xmlns="http://www.w3.org/2000/svg">
<g clip-path="url(#clip0_280_4152)">
<path d="M38.906 28.9344C38.906 28.2934 39.5032 28.1438 39.9658 28.0979C40.1923 28.0776 40.3878 28.0776 40.5086 28.0733L40.5353 27.9291C40.5759 27.7239 40.5641 27.46 40.1507 27.46C40.0359 27.4468 39.9203 27.475 39.8246 27.5397C39.729 27.6044 39.6597 27.7012 39.6293 27.8126H39.2019C39.282 27.4707 39.5331 27.1481 40.1827 27.1481C40.7094 27.1481 41.0588 27.382 40.9423 27.9365L40.7372 28.8981C40.6966 29.0968 40.6421 29.3725 40.6304 29.459H40.2244C40.2366 29.3478 40.2544 29.2372 40.2778 29.1278C40.2005 29.2539 40.0895 29.3558 39.9574 29.4223C39.8252 29.4887 39.6772 29.517 39.5299 29.5039C39.4505 29.5124 39.3702 29.5039 39.2943 29.479C39.2184 29.4542 39.1487 29.4135 39.0897 29.3596C39.0308 29.3058 38.9839 29.2401 38.9522 29.1668C38.9205 29.0935 38.9048 29.0143 38.906 28.9344ZM39.9936 28.4002C39.6335 28.4419 39.3419 28.5434 39.3419 28.8746C39.3419 29.0381 39.4487 29.1759 39.6902 29.1759C40.1699 29.1759 40.3462 28.7998 40.4381 28.412L40.4466 28.3767C40.3195 28.3725 40.172 28.3767 39.9936 28.3949V28.4002ZM36.6986 28.6043C36.6795 28.4301 36.6954 28.2539 36.7455 28.0859C36.7956 27.918 36.8788 27.7618 36.9902 27.6266C37.1017 27.4913 37.2391 27.3798 37.3943 27.2985C37.5496 27.2173 37.7195 27.1679 37.8942 27.1534C38.0055 27.1408 38.1183 27.1533 38.2241 27.1901C38.33 27.2269 38.4262 27.287 38.5057 27.366C38.5852 27.445 38.6459 27.5408 38.6834 27.6464C38.7208 27.752 38.7341 27.8647 38.7222 27.9761C38.7232 28.1205 38.7042 28.2643 38.6656 28.4034H37.1356C37.1245 28.4698 37.1184 28.537 37.1175 28.6043C37.1175 28.959 37.282 29.1738 37.5908 29.1738C37.7084 29.1772 37.8243 29.145 37.9234 29.0816C38.0225 29.0181 38.1002 28.9262 38.1463 28.818H38.5737C38.5007 29.0299 38.3607 29.2122 38.1749 29.3375C37.9891 29.4628 37.7675 29.5242 37.5437 29.5124C37.4248 29.5199 37.3056 29.5009 37.1949 29.4566C37.0843 29.4124 36.9848 29.344 36.9038 29.2566C36.8228 29.1691 36.7623 29.0647 36.7266 28.951C36.6909 28.8373 36.681 28.717 36.6976 28.599L36.6986 28.6043ZM37.2008 28.1H38.3087C38.3183 28.0497 38.323 27.9985 38.3226 27.9472C38.3319 27.8855 38.3268 27.8225 38.3078 27.763C38.2888 27.7036 38.2563 27.6493 38.2129 27.6044C38.1695 27.5596 38.1163 27.5253 38.0575 27.5044C37.9987 27.4834 37.9359 27.4763 37.8739 27.4835C37.5427 27.4782 37.3087 27.7036 37.2008 28.0989V28.1ZM32.8075 28.9387C32.8075 28.2977 33.4047 28.1481 33.8674 28.1021C34.0939 28.0819 34.2947 28.0819 34.409 28.0776L34.4368 27.9333C34.4774 27.7282 34.4646 27.4643 34.0522 27.4643C33.9374 27.451 33.8215 27.4792 33.7257 27.5439C33.6299 27.6086 33.5604 27.7054 33.5297 27.8169H33.1077C33.1868 27.475 33.4379 27.1523 34.0875 27.1523C34.6152 27.1523 34.9646 27.3863 34.8471 27.9408L34.642 28.9024C34.6014 29.1011 34.5469 29.3768 34.5351 29.4633H34.1291C34.1366 29.3842 34.159 29.2496 34.1825 29.1321C34.1053 29.2582 33.9943 29.3603 33.8622 29.4267C33.7301 29.4932 33.582 29.5214 33.4347 29.5082C33.3546 29.5172 33.2736 29.509 33.197 29.4841C33.1205 29.4592 33.0501 29.4182 32.9907 29.3638C32.9313 29.3095 32.8842 29.243 32.8526 29.169C32.821 29.0949 32.8056 29.0149 32.8075 28.9344V28.9387ZM33.8962 28.4045C33.534 28.4462 33.2434 28.5477 33.2434 28.8789C33.2434 29.0423 33.3503 29.1802 33.5917 29.1802C34.0704 29.1802 34.2477 28.8041 34.3396 28.4163L34.3492 28.381C34.2199 28.3725 34.0736 28.3767 33.8962 28.3949V28.4045ZM30.7124 28.7859H31.1333C31.1568 29.0135 31.2968 29.1876 31.6365 29.1876C31.9271 29.1876 32.0746 29.0466 32.0746 28.8426C32.0746 28.6385 31.9303 28.5498 31.6162 28.4387C31.1194 28.2688 30.9677 28.0947 30.9677 27.8286C30.9677 27.4643 31.2476 27.1577 31.8064 27.1577C32.4037 27.1577 32.6355 27.4857 32.6248 27.819H32.2049C32.19 27.6662 32.1184 27.4814 31.7776 27.4814C31.5585 27.4814 31.3919 27.5882 31.3919 27.7806C31.3919 27.9333 31.519 28.0028 31.831 28.1128C32.3182 28.2827 32.5105 28.4761 32.5105 28.7934C32.5105 29.2582 32.1259 29.5167 31.5853 29.5167C30.9966 29.5071 30.706 29.2101 30.7124 28.7763V28.7859ZM27.4879 28.6086C27.4688 28.4344 27.4847 28.2581 27.5348 28.0902C27.5849 27.9223 27.6681 27.7661 27.7795 27.6308C27.891 27.4956 28.0284 27.3841 28.1836 27.3028C28.3389 27.2215 28.5088 27.1722 28.6835 27.1577C28.7948 27.145 28.9076 27.1576 29.0134 27.1944C29.1192 27.2312 29.2155 27.2913 29.295 27.3702C29.3744 27.4492 29.4352 27.5451 29.4727 27.6507C29.5101 27.7563 29.5234 27.8689 29.5115 27.9804C29.5127 28.1248 29.4932 28.2687 29.4538 28.4077H27.926C27.9146 28.4741 27.9085 28.5412 27.9078 28.6086C27.9078 28.9633 28.0713 29.178 28.3811 29.178C28.4986 29.1817 28.6145 29.1496 28.7135 29.0861C28.8125 29.0226 28.8899 28.9306 28.9356 28.8223H29.363C29.2897 29.0339 29.1496 29.2161 28.9639 29.3413C28.7781 29.4666 28.5568 29.5281 28.333 29.5167C28.2138 29.524 28.0945 29.5046 27.9837 29.46C27.8729 29.4153 27.7735 29.3465 27.6927 29.2586C27.6118 29.1707 27.5516 29.0659 27.5164 28.9518C27.4811 28.8377 27.4718 28.7171 27.489 28.599L27.4879 28.6086ZM27.9901 28.1043H29.098C29.1087 28.0541 29.1137 28.0028 29.113 27.9515C29.1223 27.8898 29.1172 27.8267 29.0982 27.7673C29.0791 27.7078 29.0467 27.6536 29.0032 27.6087C28.9598 27.5639 28.9067 27.5296 28.8479 27.5086C28.7891 27.4877 28.7262 27.4806 28.6642 27.4878C28.333 27.4782 28.099 27.7036 27.9922 28.0989L27.9901 28.1043ZM24.9985 28.6299C24.9985 27.9579 25.3992 27.1577 26.1898 27.1577C26.3148 27.1438 26.441 27.1679 26.5521 27.2267C26.6632 27.2856 26.754 27.3766 26.8127 27.4878L27.0862 26.2057H27.4997L26.943 28.8458C26.8982 29.0594 26.8522 29.2731 26.8159 29.474H26.4142C26.4262 29.3595 26.4444 29.2457 26.4687 29.1332C26.3929 29.2579 26.2847 29.3596 26.1556 29.4276C26.0265 29.4955 25.8814 29.5271 25.7357 29.5189C25.2475 29.5071 25.0007 29.1438 25.0007 28.6203L24.9985 28.6299ZM25.4323 28.5883C25.4323 28.9708 25.5979 29.1567 25.8864 29.1567C26.3362 29.1567 26.5702 28.7549 26.6674 28.2603C26.7614 27.803 26.6246 27.5124 26.208 27.5124C25.6983 27.5081 25.428 28.0989 25.428 28.5787L25.4323 28.5883ZM21.8852 29.1802C21.8617 29.287 21.8296 29.4174 21.8126 29.4708H21.4076C21.4333 29.3554 21.4835 29.1396 21.5412 28.8703L22.1053 26.1993H22.5188L22.2378 27.5231C22.3192 27.4069 22.428 27.3125 22.5545 27.2482C22.681 27.1839 22.8214 27.1517 22.9632 27.1545C23.4301 27.1545 23.6951 27.475 23.6951 27.9964C23.6951 28.7026 23.3158 29.5135 22.4942 29.5135C22.3689 29.5268 22.2427 29.5005 22.1331 29.4385C22.0235 29.3764 21.9361 29.2816 21.8831 29.1673L21.8852 29.1802ZM22.0444 28.3479C21.9376 28.8575 22.0754 29.1641 22.491 29.1641C23.0252 29.1641 23.2645 28.5135 23.2645 28.0402C23.2645 27.6983 23.1149 27.5156 22.8083 27.5156C22.4002 27.506 22.1384 27.8639 22.0423 28.3383L22.0444 28.3479ZM16.7494 28.6096C16.7302 28.4355 16.7462 28.2592 16.7962 28.0913C16.8463 27.9233 16.9295 27.7672 17.041 27.6319C17.1524 27.4967 17.2898 27.3851 17.4451 27.3039C17.6003 27.2226 17.7703 27.1733 17.9449 27.1587C18.0563 27.1461 18.169 27.1586 18.2749 27.1954C18.3807 27.2322 18.4769 27.2923 18.5564 27.3713C18.6359 27.4503 18.6966 27.5461 18.7341 27.6517C18.7716 27.7573 18.7849 27.87 18.7729 27.9814C18.7736 28.1259 18.7542 28.2697 18.7152 28.4088H17.1832C17.1717 28.4751 17.1657 28.5423 17.165 28.6096C17.165 28.9644 17.3285 29.1791 17.6372 29.1791C17.7549 29.1829 17.8711 29.151 17.9703 29.0875C18.0694 29.024 18.147 28.9319 18.1928 28.8233H18.6202C18.5472 29.0352 18.4072 29.2176 18.2214 29.3429C18.0356 29.4681 17.814 29.5295 17.5902 29.5178C17.4708 29.5253 17.3513 29.506 17.2404 29.4614C17.1294 29.4168 17.0298 29.3479 16.9489 29.2598C16.868 29.1717 16.8078 29.0667 16.7727 28.9523C16.7377 28.838 16.7286 28.7173 16.7462 28.599L16.7494 28.6096ZM17.2515 28.1054H18.3595C18.3688 28.055 18.373 28.0038 18.3723 27.9526C18.3818 27.8908 18.3769 27.8277 18.358 27.7681C18.339 27.7086 18.3065 27.6542 18.2631 27.6093C18.2196 27.5644 18.1663 27.5301 18.1074 27.5093C18.0485 27.4884 17.9856 27.4814 17.9236 27.4889C17.5913 27.4782 17.3562 27.7036 17.2483 28.0989L17.2515 28.1054ZM9.31114 28.9441C9.31114 28.303 9.90731 28.1534 10.3699 28.1075C10.5975 28.0872 10.7973 28.0872 10.9127 28.0829L10.9405 27.9387C10.9811 27.7335 10.9693 27.4697 10.5558 27.4697C10.4412 27.4566 10.3256 27.485 10.23 27.5496C10.1344 27.6143 10.0651 27.7109 10.0345 27.8222H9.60709C9.68615 27.4803 9.9383 27.1577 10.5879 27.1577C11.1146 27.1577 11.464 27.3917 11.3475 27.9462L11.1424 28.9077C11.1018 29.1064 11.0473 29.3821 11.0356 29.4686H10.6338C10.6402 29.3896 10.6637 29.255 10.6873 29.1374C10.6096 29.2644 10.4978 29.3671 10.3646 29.4336C10.2314 29.5001 10.0822 29.5278 9.93402 29.5135C9.8536 29.5226 9.77215 29.5143 9.69524 29.4891C9.61833 29.4639 9.54775 29.4224 9.48833 29.3674C9.42891 29.3124 9.38204 29.2453 9.35091 29.1706C9.31978 29.0959 9.30512 29.0153 9.30794 28.9344L9.31114 28.9441ZM10.3988 28.4098C10.0377 28.4515 9.74705 28.553 9.74705 28.8842C9.74705 29.0477 9.85389 29.1855 10.0943 29.1855C10.574 29.1855 10.7514 28.8094 10.8422 28.4216L10.8518 28.3863C10.7204 28.3725 10.5772 28.3767 10.3956 28.3949L10.3988 28.4098ZM5.06637 28.7913H5.48625C5.51083 29.0188 5.65079 29.193 5.99054 29.193C6.28115 29.193 6.42752 29.052 6.42752 28.8479C6.42752 28.6438 6.28435 28.5552 5.97024 28.444C5.47236 28.2742 5.32065 28.1 5.32065 27.834C5.32065 27.4697 5.60057 27.163 6.15935 27.163C6.75659 27.163 6.98843 27.491 6.97882 27.8244H6.55466C6.54077 27.6716 6.46812 27.4867 6.12195 27.4867C5.90293 27.4867 5.73626 27.5936 5.73626 27.7859C5.73626 27.9387 5.8634 28.0081 6.17644 28.1182C6.66364 28.2881 6.85488 28.4814 6.85488 28.7987C6.85488 29.2635 6.47025 29.5221 5.92964 29.5221C5.34843 29.5071 5.05782 29.2101 5.06423 28.7763L5.06637 28.7913ZM2.88469 28.678L3.20521 27.1929H3.61334L3.31205 28.6331C3.25115 28.9141 3.26825 29.1545 3.61548 29.1545C3.96271 29.1545 4.23195 28.9024 4.36336 28.2902L4.59841 27.1929H5.01188L4.65824 28.8554C4.61444 29.0573 4.5717 29.2827 4.54072 29.4622H4.13472C4.14869 29.3359 4.16902 29.2104 4.19562 29.0862C4.1199 29.2167 4.01061 29.3246 3.87909 29.3986C3.74757 29.4727 3.59863 29.5101 3.44774 29.5071C3.02785 29.5071 2.76503 29.2592 2.88469 28.678ZM0.534196 28.599C0.515044 28.4248 0.53098 28.2485 0.581064 28.0806C0.631147 27.9127 0.714364 27.7565 0.825801 27.6212C0.937239 27.486 1.07464 27.3744 1.22989 27.2932C1.38515 27.2119 1.55511 27.1626 1.72974 27.1481C1.84108 27.1354 1.95384 27.148 2.05968 27.1848C2.16552 27.2215 2.26174 27.2817 2.34124 27.3606C2.42073 27.4396 2.48145 27.5354 2.51893 27.641C2.55641 27.7466 2.56968 27.8593 2.55776 27.9707C2.55846 28.1152 2.53904 28.259 2.50006 28.3981H0.971174C0.96026 28.4645 0.95419 28.5317 0.953011 28.599C0.953011 28.9537 1.11648 29.1684 1.42525 29.1684C1.54285 29.1723 1.65886 29.1404 1.7579 29.0769C1.85694 29.0133 1.93431 28.9212 1.97975 28.8126H2.40711C2.33361 29.0244 2.19336 29.2066 2.00744 29.3318C1.82151 29.4571 1.59997 29.5186 1.3761 29.5071C1.25794 29.514 1.13972 29.4947 1.02991 29.4505C0.920108 29.4063 0.821435 29.3384 0.740967 29.2516C0.6605 29.1648 0.600232 29.0613 0.564484 28.9484C0.528736 28.8356 0.518393 28.7163 0.534196 28.599ZM1.03635 28.0989H2.14428C2.15414 28.0486 2.15879 27.9974 2.15817 27.9462C2.16747 27.8844 2.1624 27.8214 2.14337 27.7619C2.12434 27.7025 2.09186 27.6482 2.04845 27.6034C2.00504 27.5585 1.95187 27.5243 1.89308 27.5033C1.83428 27.4823 1.77144 27.4752 1.70944 27.4825C1.37824 27.4782 1.14319 27.7036 1.03635 28.0989ZM14.0303 28.9205L14.323 27.5316H13.9544L14.0292 27.1972H14.3978L14.5367 26.5562H14.947L14.8113 27.1972H15.2782L15.2034 27.5316H14.7322L14.4523 28.8596C14.4117 29.0541 14.4224 29.1524 14.6158 29.1524C14.6874 29.1525 14.7589 29.1464 14.8295 29.1342L14.7589 29.4548C14.6509 29.4852 14.5388 29.4982 14.4267 29.4932C14.057 29.4879 13.9512 29.2977 14.0303 28.9173V28.9205ZM35.1334 29.4654L35.4742 27.8682C35.5213 27.6459 35.5672 27.4056 35.6067 27.1961H36.0052C35.9871 27.3531 35.9604 27.509 35.9251 27.663C35.9945 27.5115 36.1056 27.383 36.2455 27.2923C36.3853 27.2017 36.548 27.1528 36.7147 27.1513L36.6249 27.5786C36.4074 27.5985 36.2035 27.693 36.0478 27.8461C35.892 27.9991 35.7939 28.2013 35.7702 28.4184L35.549 29.4665L35.1334 29.4654ZM23.9013 29.4654L24.381 27.1961H24.7955L24.3158 29.4654H23.9013ZM20.3905 29.4654L20.6854 28.0637C20.7548 27.7432 20.6854 27.5135 20.3542 27.5135C19.9578 27.5135 19.7281 27.8682 19.6309 28.3244L19.3894 29.4665H18.9759L19.3339 27.7741C19.3734 27.5776 19.414 27.3863 19.4471 27.1972H19.8531C19.8456 27.2667 19.8039 27.5038 19.7879 27.5647C19.8641 27.4352 19.9738 27.3286 20.1054 27.2561C20.2369 27.1835 20.3856 27.1477 20.5358 27.1523C20.9706 27.1523 21.2399 27.4066 21.0989 28.0562L20.8018 29.4665L20.3905 29.4654ZM15.182 29.4654L15.5229 27.8682C15.5688 27.6459 15.6158 27.4056 15.6543 27.1961H16.0528C16.0348 27.3531 16.0084 27.5089 15.9737 27.663C16.0426 27.5114 16.1535 27.3826 16.2932 27.292C16.4329 27.2013 16.5956 27.1525 16.7622 27.1513L16.6735 27.5786C16.4561 27.5987 16.2523 27.6933 16.0966 27.8463C15.9409 27.9993 15.8427 28.2014 15.8188 28.4184L15.5976 29.4665L15.182 29.4654ZM11.6349 29.4654L12.3262 26.1972H12.7407L12.0484 29.4654H11.6349ZM8.58035 29.4654L8.1359 28.3383L7.71708 28.6588L7.54828 29.4601H7.1348L7.82499 26.1918H8.23953L7.80469 28.2111C8.02799 27.9974 8.61989 27.4867 8.94895 27.1908H9.46606C9.13058 27.4932 8.78976 27.787 8.46069 28.0744L9.04725 29.4633L8.58035 29.4654ZM24.4878 26.6961L24.5947 26.1929H25.0092L24.9024 26.6961H24.4878ZM19.039 23.5358H18.6405L25.0007 0.534091H25.428L20.492 18.4042C21.1661 18.4752 21.8475 18.4112 22.4966 18.2158C23.1456 18.0205 23.7492 17.6977 24.272 17.2664C27.0926 14.4415 23.132 8.03109 27.9911 3.16344C30.4965 0.652685 33.2701 0.477466 36.4796 0.544775C36.5142 0.545623 36.5482 0.554354 36.5789 0.570305C36.6096 0.586255 36.6363 0.609005 36.6569 0.636821C36.6775 0.664638 36.6915 0.696789 36.6978 0.730827C36.7041 0.764865 36.7026 0.799893 36.6933 0.833245L36.2296 2.51278C36.2163 2.56147 36.1871 2.60432 36.1466 2.63451C36.1062 2.66471 36.0568 2.68052 36.0063 2.67945C33.5736 2.64419 31.3833 2.81514 29.5136 4.68698C25.3468 8.86231 29.6205 14.9618 25.7945 18.7899C24.1278 20.4588 22.0433 20.5763 19.8969 20.5475L19.6608 21.4022C22.1544 21.4577 24.4601 21.352 26.4067 19.4021C30.5799 15.2236 26.2934 9.14544 30.1258 5.30452C31.6974 3.73931 33.6045 3.54806 35.6473 3.54486C35.6826 3.54474 35.7174 3.55279 35.7491 3.56837C35.7808 3.58396 35.8084 3.60667 35.8298 3.63471C35.8512 3.66275 35.8659 3.69537 35.8726 3.73001C35.8793 3.76466 35.8779 3.80038 35.8685 3.83439L35.4005 5.53102C35.3875 5.57815 35.3598 5.61988 35.3213 5.65007C35.2828 5.68026 35.2357 5.69732 35.1868 5.69876C33.9045 5.60197 32.6352 6.01075 31.6504 6.83768C28.8202 9.67109 32.8011 16.058 27.9313 20.9342C25.6577 23.2099 23.1887 23.5604 20.4161 23.5604C19.9631 23.5572 19.5027 23.5486 19.0336 23.5358H19.039ZM17.1703 23.5358L19.5144 14.996H19.1479C16.0496 14.996 14.2835 12.4821 15.2045 9.38476L15.9438 6.952H7.00446C6.98294 7.17147 7.0055 7.39303 7.07082 7.60366C7.13614 7.81429 7.24289 8.00974 7.38481 8.17853C7.59134 8.37157 7.83624 8.51892 8.10354 8.61096C8.37084 8.70301 8.65453 8.73769 8.93613 8.71273C9.85864 8.69296 10.7485 8.36753 11.4661 7.78749C11.5012 7.76187 11.5428 7.74675 11.5861 7.74391C11.6294 7.74107 11.6727 7.75063 11.7108 7.77147L13.511 8.7544C13.5425 8.77181 13.5694 8.79636 13.5897 8.82608C13.6099 8.8558 13.6229 8.88985 13.6276 8.9255C13.6322 8.96115 13.6285 8.9974 13.6166 9.03133C13.6047 9.06526 13.585 9.09593 13.5591 9.12086C12.864 9.83334 12.0399 10.4073 11.1306 10.8121C10.2345 11.1818 9.27296 11.3668 8.30364 11.356C7.63152 11.413 6.95585 11.3003 6.33867 11.0281C5.72149 10.7559 5.1826 10.333 4.77149 9.79823C4.40794 9.22956 4.18246 8.58372 4.11308 7.91235C4.0437 7.24097 4.13234 6.56268 4.37191 5.93167C4.80702 4.42481 5.70487 3.09287 6.93846 2.12425C8.17205 1.15563 9.67895 0.599347 11.246 0.534091C11.9221 0.476023 12.6018 0.592264 13.2202 0.871711C13.8386 1.15116 14.375 1.58448 14.7782 2.13029C15.194 2.75273 15.4139 3.48543 15.4096 4.23398H16.7312L17.8306 0.534091H20.7869L19.6864 4.23398H22.4643L23.4803 0.534091H24.4077L18.0924 23.5358H17.1703ZM18.1618 9.38476C18.0419 9.68353 17.9984 10.0075 18.0352 10.3273C18.072 10.6471 18.188 10.9527 18.3727 11.2164C18.5574 11.4801 18.8049 11.6936 19.0929 11.8376C19.3808 11.9815 19.7001 12.0514 20.0219 12.0408H20.3211L21.7175 6.95521H18.8648L18.1618 9.38476ZM8.88165 3.63995C8.62315 3.80616 8.38783 4.00591 8.18184 4.23398H12.5249C12.4507 3.9696 12.3024 3.73197 12.0975 3.54913C11.7203 3.2303 11.2348 3.06886 10.7417 3.09826C10.0833 3.10159 9.43893 3.28923 8.88165 3.63995Z" fill="black"/>
</g>
<defs>
<clipPath id="clip0_280_4152">
<rect width="41.6678" height="29.9153" fill="white"/>
</clipPath>
</defs>
</svg>
