<svg width="312" height="215" viewBox="0 0 312 215" fill="none" xmlns="http://www.w3.org/2000/svg">
<path d="M0 47.5361V56.0901H109.1V136.756H117.65V47.5361H0Z" fill="#44D9CB"/>
<path d="M162.966 136.756H154.416V2.14062H207.841V10.6906H162.966V136.752V136.756Z" fill="#44D9CB"/>
<path d="M158.876 91.4912H113.544V100.041H158.876V91.4912Z" fill="#44D9CB"/>
<path d="M311.347 16.3955H273.117V24.9455H311.347V16.3955Z" fill="#44D9CB"/>
<path d="M311.347 48.9365H273.117V57.4865H311.347V48.9365Z" fill="#44D9CB"/>
<path d="M311.347 81.4771H273.117V90.027H311.347V81.4771Z" fill="#44D9CB"/>
<path d="M275.783 113.58V136.489H284.333V122.134H311.347V113.584H275.783V113.58Z" fill="#44D9CB"/>
<path d="M184.431 30.1177H175.881V50.0463H184.431V30.1177Z" fill="#44D9CB"/>
<path d="M206.806 30.1177H198.256V50.0463H206.806V30.1177Z" fill="#44D9CB"/>
<path d="M184.431 74.6338H175.881V94.5625H184.431V74.6338Z" fill="#44D9CB"/>
<path d="M139.787 119.202H131.237V139.131H139.787V119.202Z" fill="#44D9CB"/>
<path d="M206.806 74.6338H198.256V94.5625H206.806V74.6338Z" fill="#44D9CB"/>
<path d="M255.026 112.391H156.78V120.941H255.026V112.391Z" fill="#44D9CB"/>
<path d="M257.422 2.13232H248.872V58.453H257.422V2.13232Z" fill="#44D9CB"/>
<path d="M258.118 79.814H249.568V137.424H258.118V79.814Z" fill="#003CA7"/>
<path d="M253.841 63.9079C248.697 63.9039 244.523 68.0695 244.519 73.2138C244.519 74.4233 244.754 75.6208 245.207 76.7388L246.389 79.6352L243.982 81.6364C237.425 87.0791 236.526 96.8067 241.969 103.363C247.411 109.92 257.139 110.819 263.696 105.377C270.252 99.9339 271.152 90.2063 265.709 83.6496C265.1 82.9175 264.428 82.2451 263.696 81.6364L261.289 79.6352L262.47 76.7388C264.416 71.9765 262.132 66.5417 257.37 64.5962C256.248 64.1387 255.05 63.9039 253.837 63.9039M253.841 117.483C240.6 117.483 229.862 106.749 229.862 93.5085C229.862 87.3974 232.193 81.5171 236.383 77.069C234.258 67.4289 240.353 57.8923 249.998 55.7677C259.638 53.6432 269.174 59.7384 271.299 69.3824C271.856 71.9128 271.856 74.5387 271.299 77.069C280.378 86.7091 279.924 101.883 270.284 110.962C265.836 115.152 259.956 117.487 253.841 117.483Z" fill="#44D9CB"/>
<path d="M80.5144 89.5298H71.9644V139.922H80.5144V89.5298Z" fill="#003CA7"/>
<path d="M76.2374 73.6193C71.0931 73.6154 66.9196 77.7809 66.9116 82.9252C66.9116 84.1347 67.1464 85.3362 67.6039 86.4542L68.7855 89.3506L66.3785 91.3518C59.8218 96.7945 58.9226 106.522 64.3653 113.079C69.808 119.635 79.5356 120.535 86.0923 115.092C92.649 109.649 93.5482 99.9217 88.1055 93.365C87.4967 92.6329 86.8244 91.9606 86.0923 91.3518L83.6853 89.3506L84.8669 86.4542C86.8124 81.6919 84.5248 76.2532 79.7624 74.3116C78.6404 73.8541 77.4429 73.6193 76.2334 73.6193M76.2374 127.199C62.9967 127.199 52.2585 116.465 52.2585 103.224C52.2585 97.1128 54.59 91.2325 58.7794 86.7844C56.6588 77.1444 62.754 67.6077 72.3941 65.4832C82.0342 63.3626 91.5708 69.4578 93.6954 79.0978C94.2524 81.6282 94.2524 84.2501 93.6954 86.7805C102.774 96.4205 102.317 111.595 92.6769 120.674C88.2288 124.863 82.3485 127.195 76.2374 127.195" fill="#44D9CB"/>
<path d="M111.555 8.54995C106.789 8.54995 102.926 12.4131 102.926 17.1795C102.926 21.9458 106.789 25.809 111.555 25.809C116.322 25.809 120.185 21.9458 120.185 17.1795C120.181 12.4171 116.322 8.55791 111.555 8.54995ZM111.555 34.3589C102.066 34.3589 94.3757 26.6684 94.3757 17.1795C94.3757 7.69058 102.066 0 111.555 0C121.044 0 128.735 7.69058 128.735 17.1795C128.723 26.6644 121.04 34.351 111.555 34.3589Z" fill="#003CA7"/>
<path d="M251.119 190.864H24.5717V199.414H251.119V190.864Z" fill="#003CA7"/>
<path d="M243.377 171.544H189.185V180.094H243.377V171.544Z" fill="#44D9CB"/>
<path d="M179.338 171.544H95.0163V180.094H179.338V171.544Z" fill="#44D9CB"/>
<path d="M84.668 171.544H44.2815V180.094H84.668V171.544Z" fill="#44D9CB"/>
<path d="M256.558 214.843L36.5869 214.787C29.1987 214.787 23.3741 210.9 20.9989 204.383C18.2895 196.951 20.7681 188.087 27.0264 182.823L27.0702 182.788C55.334 159.64 69.5494 152.948 90.4488 152.948H233.124V161.498H90.4488C73.9378 161.498 61.6519 165.525 32.5129 189.384C28.5582 192.726 27.7704 197.982 29.0356 201.451C29.8313 203.631 31.7848 206.229 36.5909 206.229L256.562 206.285V214.835L256.558 214.843Z" fill="#003CA7"/>
<path d="M311.347 136.258H3.54092V144.808H311.347V136.258Z" fill="#44D9CB"/>
<path d="M262.832 214.843H254.282L223.918 140.698H232.468L262.832 214.843Z" fill="#44D9CB"/>
<path d="M20.0082 83.6934H11.4583V103.622H20.0082V83.6934Z" fill="#44D9CB"/>
<path d="M42.3837 83.6934H33.8338V103.622H42.3837V83.6934Z" fill="#44D9CB"/>
<path d="M42.3837 119.688H33.8338V139.616H42.3837V119.688Z" fill="#44D9CB"/>
</svg>
