<svg width="37" height="35" viewBox="0 0 37 35" fill="none" xmlns="http://www.w3.org/2000/svg">
<path d="M36.57 34.2598H0V31.7598H36.57V34.2598Z" fill="#44D9CB"/>
<path d="M16.3465 12.0337L9.91968 14.9072L11 17.3234L17.4268 14.4499L16.3465 12.0337Z" fill="#44D9CB"/>
<path d="M26.082 21.8499H23.4353V15.5066L19.9453 12.1633H18.2353V19.6533H15.5886V9.5166H21.012L26.082 14.3766V21.8466V21.8499Z" fill="#003CA7"/>
<path d="M19.512 18.0771V19.7305L14.1653 22.5871L11.6653 31.2705L14.2086 32.0005L16.3986 24.3971L22.1586 21.3171V18.0771H19.512Z" fill="#44D9CB"/>
<path d="M20.7607 23.3202L18.7727 25.0674L24.6787 31.7877L26.6667 30.0405L20.7607 23.3202Z" fill="#003CA7"/>
<path d="M18.0319 2.64667C17.2153 2.64667 16.5519 3.31 16.5519 4.12667C16.5519 4.94333 17.2153 5.60667 18.0319 5.60667C18.8486 5.60667 19.5119 4.94333 19.5119 4.12667C19.5119 3.31 18.8486 2.64667 18.0319 2.64667ZM18.0319 8.25333C15.7519 8.25333 13.9053 6.40667 13.9053 4.12667C13.9053 1.84667 15.7553 0 18.0319 0C20.3119 0 22.1586 1.84667 22.1586 4.12667C22.1586 6.40333 20.3086 8.25 18.0319 8.25333Z" fill="#44D9CB"/>
</svg>
