<svg width="120" height="120" viewBox="0 0 120 120" fill="none" xmlns="http://www.w3.org/2000/svg">
<path d="M94.1398 93.405L87.9898 88.165C99.7898 74.285 98.1098 53.465 84.2298 41.665C70.3498 29.865 49.5298 31.545 37.7298 45.425C36.5098 46.855 35.4198 48.395 34.4598 50.015L27.5098 45.905C39.0398 26.375 64.2298 19.895 83.7598 31.425C103.29 42.955 109.77 68.145 98.2398 87.675C97.0398 89.705 95.6698 91.625 94.1398 93.415" fill="#003CA7"/>
<path d="M66.9101 17.9648H58.8301V30.4248H66.9101V17.9648Z" fill="#003CA7"/>
<path d="M95.6455 29.293L86.835 38.1035L92.5484 43.8169L101.359 35.0064L95.6455 29.293Z" fill="#003CA7"/>
<path d="M62.8801 107.845C40.2101 107.815 21.8401 89.4449 21.8101 66.7749H29.8901C29.8901 84.9949 44.6601 99.7649 62.8801 99.7649C72.5401 99.7649 81.7201 95.5249 87.9901 88.1649L94.1401 93.4049C86.3401 102.575 74.9101 107.855 62.8801 107.845Z" fill="#44D9CB"/>
<path d="M48.8599 12.1548L53.0499 20.2448H76.0299L71.8299 12.1548H48.8599Z" fill="#44D9CB"/>
<path d="M66.4799 43.0146V65.9946L58.3999 66.7746V47.2046L66.4799 43.0146Z" fill="#44D9CB"/>
<path d="M105.25 42.8846L89 26.6346L91.75 17.9546L108 34.2046L105.25 42.8846Z" fill="#44D9CB"/>
<path d="M39.7101 69.195L34.0001 74.905L25.8501 66.765V55.335L39.7101 69.195Z" fill="#44D9CB"/>
<path d="M25.86 66.765L17.71 74.905L12 69.195L25.86 55.335V66.765Z" fill="#003CA7"/>
<path d="M66.7099 66.7846C66.7099 69.1446 64.7999 71.0546 62.4399 71.0546C60.0799 71.0546 58.1699 69.1446 58.1699 66.7846C58.1699 64.4246 60.0799 62.5146 62.4399 62.5146C64.7999 62.5146 66.7099 64.4246 66.7099 66.7846Z" fill="#003CA7"/>
</svg>
