<svg width="38" height="38" viewBox="0 0 38 38" fill="none" xmlns="http://www.w3.org/2000/svg">
<path d="M18.5834 15.0395C16.5325 15.0395 14.8684 16.7036 14.8684 18.7545C14.8684 20.8054 16.5325 22.4695 18.5834 22.4695C20.6343 22.4695 22.2984 20.8054 22.2984 18.7545C22.2984 16.7036 20.6343 15.0395 18.5834 15.0395ZM18.5834 24.7107C15.2928 24.7107 12.6226 22.0405 12.6226 18.7499C12.6226 15.4593 15.2928 12.7891 18.5834 12.7891C21.874 12.7891 24.5442 15.4593 24.5442 18.7499C24.5442 22.0405 21.874 24.7061 18.588 24.7107" fill="#44D9CB"/>
<path d="M17.5442 10.75V1.19333L19.8442 0V9.55667L17.5442 10.75Z" fill="#44D9CB"/>
<path d="M26.4167 17.5437H35.9734L37.1667 19.8438H27.6101L26.4167 17.5437Z" fill="#44D9CB"/>
<path d="M12.2311 13.7465L6.47528 7.99067L7.25781 5.52051L13.0137 11.2764L12.2311 13.7465Z" fill="#003CA7"/>
<path d="M13.8117 24.9359L8.05585 30.6917L5.58569 29.9092L11.3415 24.1533L13.8117 24.9359Z" fill="#003CA7"/>
<path d="M17.5442 37.167V27.6103L19.8442 26.417L19.8442 35.9737L17.5442 37.167Z" fill="#44D9CB"/>
<path d="M0 17.5437H9.55667L10.75 19.8438L1.19333 19.8437L0 17.5437Z" fill="#44D9CB"/>
<path d="M29.9089 31.4243L24.153 25.6684L24.9355 23.1982L30.6914 28.9541L29.9089 31.4243Z" fill="#003CA7"/>
<path d="M31.4892 7.25813L25.7333 13.014L23.2632 12.2314L29.019 6.4756L31.4892 7.25813Z" fill="#003CA7"/>
</svg>
