<svg width="21" height="21" viewBox="0 0 21 21" fill="none" xmlns="http://www.w3.org/2000/svg">
<path d="M16.278 15.2643L15.065 14.2308C17.3924 11.4931 17.061 7.38658 14.3234 5.05917C11.5857 2.73175 7.47918 3.06311 5.15177 5.80078C4.91113 6.08283 4.69614 6.38658 4.50679 6.70611L3.13599 5.89546C5.41015 2.04339 10.3786 0.76528 14.2307 3.03944C18.0827 5.3136 19.3608 10.282 17.0867 14.1341C16.85 14.5345 16.5798 14.9132 16.278 15.2663" fill="#003CA7"/>
<path d="M10.1123 18.1123C5.64091 18.1064 2.01764 14.4831 2.01172 10.0117H3.60541C3.60541 13.6054 6.51862 16.5186 10.1123 16.5186C12.0176 16.5186 13.8283 15.6823 15.065 14.2307L16.278 15.2642C14.7395 17.0729 12.4851 18.1143 10.1123 18.1123Z" fill="#44D9CB"/>
<path d="M5.46542 10.4891L4.33918 11.6153L2.73169 10.0098V7.75537L5.46542 10.4891Z" fill="#44D9CB"/>
<path d="M2.73373 10.0098L1.12623 11.6153L0 10.4891L2.73373 7.75537V10.0098Z" fill="#003CA7"/>
</svg>
