<svg width="35" height="35" viewBox="0 0 35 35" fill="none" xmlns="http://www.w3.org/2000/svg">
<path d="M25.7216 10.7828L34.2847 2.21973L32.4438 0.378892L23.8808 8.94196L25.7216 10.7828Z" fill="#44D9CB"/>
<path d="M34.6667 11.0503V0.000291824L32.0634 2.60363V11.0503H34.6667Z" fill="#44D9CB"/>
<path d="M32.0634 2.60352L34.6667 0.000181675H23.6167V2.60352H32.0634Z" fill="#003CA7"/>
<path d="M2.22161 34.2882L10.7847 25.7251L8.94383 23.8843L0.380771 32.4473L2.22161 34.2882Z" fill="#44D9CB"/>
<path d="M2.60327 32.0637V23.617H-6.24657e-05V34.667L2.60327 32.0637Z" fill="#44D9CB"/>
<path d="M11.05 34.667V32.0637H2.60338L4.76837e-05 34.667H11.05Z" fill="#003CA7"/>
<path d="M8.94335 10.7881L10.7842 8.94727L2.22112 0.384202L0.380282 2.22504L8.94335 10.7881Z" fill="#003CA7"/>
<path d="M11.05 2.60352V0.000181675H4.76837e-05L2.60338 2.60352H11.05Z" fill="#44D9CB"/>
<path d="M2.60327 11.0503V2.60363L-6.24657e-05 0.000291824V11.0503H2.60327Z" fill="#003CA7"/>
<path d="M32.4463 34.2857L34.2871 32.4448L25.724 23.8818L23.8832 25.7226L32.4463 34.2857Z" fill="#003CA7"/>
<path d="M34.6667 34.667L32.0634 32.0637H23.6167V34.667H34.6667Z" fill="#44D9CB"/>
<path d="M34.6667 23.617H32.0634V32.0637L34.6667 34.667V23.617Z" fill="#003CA7"/>
</svg>
