<svg width="70" height="30" viewBox="0 0 70 30" fill="none" xmlns="http://www.w3.org/2000/svg">
<g clip-path="url(#clip0_280_4153)">
<path d="M45.2541 27.9081V20.049L46.5901 19.7097V22.4606H49.4281V23.6198H46.5913V27.3897C46.5913 28.6208 46.6667 28.7186 47.5974 28.7186C48.1026 28.7008 48.6046 28.6293 49.0947 28.5054L49.2985 28.4488L49.573 29.5256L49.3939 29.5892C48.6988 29.8041 47.975 29.9118 47.2475 29.9085C46.977 29.9421 46.7025 29.9135 46.4448 29.8247C46.1872 29.736 45.9532 29.5895 45.7609 29.3965C45.5685 29.2034 45.4229 28.969 45.335 28.711C45.2472 28.453 45.2195 28.1784 45.2541 27.9081ZM55.4682 27.2342V25.2585C55.4148 24.8652 55.4523 24.4649 55.5776 24.0883C55.703 23.7118 55.9129 23.3689 56.1913 23.086C56.4698 22.8031 56.8093 22.5878 57.1838 22.4565C57.5584 22.3252 57.9581 22.2815 58.3522 22.3286H58.9978C60.8521 22.3286 61.7934 23.3135 61.7934 25.2585V26.4743H56.803V27.16C56.803 28.3758 57.1564 28.708 58.4252 28.708C59.3985 28.7003 60.3647 28.5413 61.2892 28.2368L61.4894 28.1696L61.8429 29.3053L61.6556 29.3725C60.5949 29.7264 59.4844 29.9082 58.3663 29.9108C56.36 29.9132 55.4682 29.0885 55.4682 27.2342ZM56.803 25.0547V25.3139H60.4433V25.0547C60.4433 23.9061 60.0345 23.5232 58.8211 23.5232H58.4994C57.2801 23.5185 56.803 23.9485 56.803 25.0547ZM40.636 29.9132C37.8734 29.9132 37.5176 28.278 37.5176 26.8502V25.3905C37.5176 23.965 37.871 22.3274 40.636 22.3274H40.9447C43.7085 22.3274 44.0643 23.9615 44.0643 25.3905V26.8525C44.0643 28.278 43.7108 29.9156 40.9447 29.9156L40.636 29.9132ZM38.8535 25.2868V26.955C38.8535 28.3204 39.2989 28.7386 40.7703 28.7386H40.8257C42.283 28.7386 42.7259 28.3204 42.7259 26.955V25.2868C42.7259 23.9214 42.283 23.5032 40.8257 23.5032H40.7703C39.2989 23.5032 38.8535 23.9155 38.8535 25.2868ZM23.1849 29.5421L22.9622 29.4903L23.3628 28.3534L23.5407 28.3935C24.3442 28.5989 25.1689 28.71 25.9982 28.7245C27.4119 28.7245 27.6793 28.311 27.6793 27.5464C27.6793 26.7971 27.3601 26.5686 26.308 26.5686H25.1358C24.8603 26.6022 24.5807 26.5749 24.3169 26.4885C24.0531 26.4022 23.8116 26.2589 23.6092 26.0688C23.4069 25.8788 23.2489 25.6466 23.1462 25.3887C23.0436 25.1308 22.9989 24.8535 23.0152 24.5764V24.5175C23.0447 23.0673 23.8399 22.3345 25.3891 22.3345C26.4733 22.3428 27.5554 22.4314 28.6265 22.5996L28.8621 22.6385L28.5087 23.7977L28.332 23.7683C27.4081 23.622 26.4752 23.5397 25.5399 23.522C24.5161 23.522 24.3418 23.8225 24.3418 24.4999C24.3418 25.1372 24.4443 25.3764 25.5116 25.3764H26.5377C27.1492 25.3764 29.0117 25.3764 29.0117 27.4427V27.7962C29.0117 28.2933 28.8032 29.9167 26.1266 29.9167C25.1357 29.9109 24.1491 29.7851 23.1884 29.5421H23.1849ZM15.1244 27.3662V22.4618H16.4591V26.9715C16.4591 28.0636 16.4591 28.668 17.7138 28.668C18.5338 28.6333 19.337 28.4245 20.07 28.0553V22.4618H21.406V29.7836H20.4105L20.2078 29.2228C19.3324 29.6587 18.3711 29.8945 17.3934 29.9132C15.8913 29.9132 15.1279 29.0567 15.1279 27.3662H15.1244ZM7.60459 27.2342V25.2585C7.55143 24.8652 7.58904 24.4649 7.71453 24.0883C7.84003 23.7117 8.05009 23.3688 8.3286 23.086C8.60712 22.8032 8.94669 22.5879 9.3213 22.4566C9.69591 22.3253 10.0956 22.2815 10.4897 22.3286H11.1342C12.9908 22.3286 13.9321 23.3135 13.9321 25.2585V26.4743H8.94526V27.16C8.94526 28.3758 9.29869 28.708 10.5675 28.708C11.54 28.7 12.5054 28.5411 13.4291 28.2368L13.6282 28.1696L13.9816 29.3053L13.7919 29.3725C12.7317 29.7265 11.6216 29.9082 10.5039 29.9108C8.50466 29.9132 7.60813 29.0885 7.60813 27.2342H7.60459ZM8.94173 25.0547V25.3139H12.582V25.0547C12.582 23.9061 12.1721 23.5232 10.9586 23.5232H10.6405C9.42475 23.5185 8.94526 23.9485 8.94526 25.0547H8.94173ZM35.5443 29.7836L33.1881 26.1409L31.8498 27.4675V29.7836H30.5221V20.049L31.8568 19.7085V25.8346L35.1944 22.4582H36.9226L34.0834 25.268L37.0994 29.7801L35.5443 29.7836ZM68.4449 29.7836V25.2727C68.4449 24.1052 68.2647 23.5468 67.2327 23.5468C66.3928 23.6148 65.5695 23.8189 64.7952 24.1511V29.7813H63.458V22.4618H64.4771L64.6432 23.0025C65.5256 22.5921 66.4815 22.3633 67.4541 22.3298C68.9574 22.3298 69.7844 23.2346 69.7844 24.878V29.7813L68.4449 29.7836ZM50.8406 29.7836V22.4618H51.8644L52.0176 23.0119C52.2803 22.7756 52.5872 22.5936 52.9207 22.4765C53.2541 22.3594 53.6074 22.3096 53.9602 22.3298C54.2703 22.329 54.5788 22.3743 54.8756 22.4641L55.0406 22.5348L54.7178 23.7035L54.5128 23.6398C54.2406 23.5741 53.9621 23.5378 53.6822 23.5315C53.3961 23.5202 53.1112 23.5754 52.85 23.6927C52.5887 23.81 52.3583 23.9863 52.1766 24.2077V29.7813L50.8406 29.7836ZM2.30317 13.4211C1.20136 12.3226 0.450098 10.922 0.144432 9.39646C-0.161234 7.87094 -0.00757504 6.28903 0.585971 4.85085C1.17952 3.41267 2.18628 2.18284 3.47891 1.31694C4.77153 0.451044 6.29193 -0.0120188 7.84778 -0.0136675C9.40362 -0.0153161 10.925 0.444524 12.2195 1.30768C13.5139 2.17084 14.5233 3.39853 15.1199 4.83545C15.7165 6.27236 15.8735 7.85394 15.571 9.38011C15.2686 10.9063 14.5203 12.3085 13.4208 13.4093L12.4548 14.38L9.0454 10.9742L10.0114 10.0046C10.4348 9.57802 10.7222 9.03558 10.8374 8.44577C10.9527 7.85595 10.8905 7.24522 10.6589 6.69069C10.4272 6.13617 10.0365 5.66272 9.53592 5.33014C9.03537 4.99755 8.4475 4.82076 7.84653 4.82207C7.24557 4.82339 6.65847 5.00276 6.15938 5.33752C5.66029 5.67229 5.2716 6.14745 5.04238 6.70298C4.81317 7.25852 4.75371 7.86952 4.87153 8.45882C4.98934 9.04813 5.27914 9.5893 5.70433 10.014L11.2626 15.5687L7.86613 18.9734L2.30317 13.4211Z" fill="black"/>
</g>
<defs>
<clipPath id="clip0_280_4153">
<rect width="69.7844" height="29.9153" fill="white"/>
</clipPath>
</defs>
</svg>
