<svg width="112" height="53" viewBox="0 0 112 53" fill="none" xmlns="http://www.w3.org/2000/svg">
<g clip-path="url(#clip0_280_4151)">
<path d="M111.738 5.1958H22.9237V25.2295H111.738V5.1958Z" fill="white"/>
<path d="M110.435 6.49951H24.2271V23.9263H110.435V6.49951Z" fill="black"/>
<path fill-rule="evenodd" clip-rule="evenodd" d="M54.8733 8.61269C54.5591 8.57733 54.2411 8.61388 53.9432 8.71957C53.6453 8.82526 53.3753 8.99732 53.1537 9.22274C52.932 9.44817 52.7646 9.72104 52.664 10.0207C52.5634 10.3204 52.5323 10.639 52.573 10.9525C52.573 11.5626 52.8153 12.1477 53.2467 12.579C53.6781 13.0104 54.2632 13.2528 54.8733 13.2528C55.4833 13.2528 56.0684 13.0104 56.4998 12.579C56.9312 12.1477 57.1735 11.5626 57.1735 10.9525C57.2136 10.6391 57.1821 10.3208 57.0812 10.0214C56.9804 9.72201 56.813 9.44941 56.5915 9.22413C56.37 8.99886 56.1003 8.82678 55.8027 8.72087C55.5051 8.61496 55.1873 8.57797 54.8733 8.61269ZM54.8733 9.47383C55.6821 9.47383 56.1222 9.98666 56.1222 10.9525C56.1222 11.9183 55.6821 12.4376 54.8733 12.4376C54.0645 12.4376 53.6179 11.9183 53.6179 10.9525C53.6179 9.98666 54.0645 9.47383 54.8733 9.47383Z" fill="white"/>
<path fill-rule="evenodd" clip-rule="evenodd" d="M94.7301 8.64648C94.5507 8.68395 94.3674 8.69938 94.1842 8.69243H91.5463C91.3689 8.69243 91.2568 8.69243 91.2055 8.84307L90.9223 9.67109C91.1746 9.59767 91.4354 9.5578 91.698 9.55249H92.2899V12.3731C92.3164 12.6701 92.2519 12.9682 92.1051 13.2278H93.5378C93.3916 12.9678 93.3251 12.6706 93.3466 12.3731V9.55356H94.1564C94.4128 9.55356 94.4983 9.55356 94.5571 9.31744L94.7301 8.64648Z" fill="white"/>
<path fill-rule="evenodd" clip-rule="evenodd" d="M95.5154 8.69824H95.4385C95.2718 8.69824 95.2248 8.76983 95.1714 8.95466L94.9577 9.68438C95.2468 9.55402 95.5605 9.487 95.8776 9.48779H96.7986L94.5774 13.2336C94.994 13.2208 95.4097 13.2144 95.837 13.2144C96.961 13.2144 97.6682 13.2603 97.9535 13.2603C98.1736 13.2603 98.2623 13.2208 98.3093 12.9708L98.4642 12.1983C98.2229 12.3441 97.9488 12.4268 97.6672 12.4387C97.3755 12.4387 96.9898 12.412 96.5197 12.412C96.4011 12.412 96.4065 12.4195 96.2633 12.4259L98.4397 8.69931L95.5154 8.69824Z" fill="white"/>
<path fill-rule="evenodd" clip-rule="evenodd" d="M61.7164 11.0504V9.57816C61.6874 9.27142 61.7538 8.96322 61.9066 8.69566H60.4803C60.3489 8.69566 60.4803 8.69566 60.3478 8.66895C60.2497 8.97419 60.1175 9.26737 59.9536 9.5429C60.177 9.46833 60.4088 9.42203 60.6437 9.40508H60.6608V9.52153V12.2855C60.6928 12.5837 60.6514 12.8852 60.5401 13.1637C60.3439 13.5737 60.0195 13.9086 59.6159 14.1178C59.8002 14.2731 60.0293 14.3652 60.2698 14.3806C60.5602 14.3408 60.8261 14.1964 61.0177 13.9746C61.1655 13.8344 61.2941 13.6753 61.4002 13.5013C61.6332 13.1291 61.7424 12.6926 61.7121 12.2545L61.7164 11.0504Z" fill="white"/>
<path fill-rule="evenodd" clip-rule="evenodd" d="M73.6794 10.6954C73.7445 10.7018 73.7777 10.7093 73.7862 10.7093H73.9636C74.5223 10.7093 74.8055 10.4593 74.8055 10.0523C74.8055 9.64519 74.5298 9.4219 74.0041 9.4219C73.894 9.42367 73.7841 9.43223 73.6751 9.44754L73.6794 10.6954ZM72.7039 9.41976C72.4624 9.44597 72.2229 9.48808 71.987 9.54583C72.1507 9.2702 72.283 8.97704 72.3812 8.67188C72.5093 8.69391 72.6392 8.70286 72.7691 8.69858H73.7392C73.8727 8.69858 74.0084 8.69218 74.1452 8.69218C75.2232 8.69218 75.7617 9.22638 75.7617 10.0597C75.7754 10.2944 75.7224 10.5281 75.609 10.734C75.4956 10.9398 75.3263 11.1094 75.1206 11.2232C75.475 12.0962 76.0265 12.8754 76.7318 13.5C76.2777 13.7137 75.1612 13.1795 74.7777 12.4519L74.1452 11.4636C74.037 11.4759 73.9282 11.4813 73.8193 11.4796H73.6815V12.3792C73.665 12.677 73.7332 12.9733 73.8781 13.234H72.518C72.6656 12.9745 72.7322 12.6768 72.7093 12.3792V9.55117C72.7093 9.5063 72.7093 9.46143 72.7093 9.41869" fill="white"/>
<path fill-rule="evenodd" clip-rule="evenodd" d="M86.0761 10.6954C86.1423 10.7018 86.1754 10.7093 86.1829 10.7093H86.3603C86.919 10.7093 87.2022 10.4593 87.2022 10.0523C87.2022 9.64519 86.9254 9.4219 86.3998 9.4219C86.2897 9.4237 86.1798 9.43226 86.0707 9.44754L86.0761 10.6954ZM85.1006 9.41976C84.8591 9.44597 84.6196 9.48808 84.3837 9.54583C84.5473 9.27012 84.6795 8.97698 84.7779 8.67188C84.906 8.69391 85.0359 8.70286 85.1658 8.69858H86.1359C86.2694 8.69858 86.4051 8.69218 86.5419 8.69218C87.6199 8.69218 88.1584 9.22638 88.1584 10.0597C88.1722 10.2944 88.1193 10.5282 88.0059 10.7341C87.8924 10.9399 87.7231 11.1095 87.5173 11.2232C87.8722 12.0962 88.4239 12.8754 89.1296 13.5C88.7234 13.5358 88.3154 13.4564 87.9522 13.271C87.589 13.0857 87.2854 12.8018 87.0761 12.4519L86.4436 11.4636C86.3688 11.4761 86.2929 11.4815 86.2171 11.4796H86.0761V12.3792C86.0595 12.677 86.1277 12.9734 86.2726 13.234H84.9126C85.0602 12.9745 85.1268 12.6768 85.1038 12.3792V9.55117C85.1038 9.5063 85.1038 9.46143 85.1038 9.41869" fill="white"/>
<path d="M37.3846 8.69263H38.8803C39.094 8.69263 39.1827 8.71828 39.2008 8.88922L39.0021 9.573C38.8039 9.5043 38.5937 9.47738 38.3846 9.49394H37.5886V10.4555H38.579C38.7226 10.4626 38.8665 10.4493 39.0064 10.416L38.8312 11.2643C38.6968 11.2409 38.5605 11.2299 38.4241 11.2312H37.579V12.4214H38.7201C38.9378 12.4358 39.1562 12.4045 39.3611 12.3295L39.2361 12.9545C39.1837 13.2237 39.1506 13.2366 38.8419 13.2366C38.5983 13.2366 37.9711 13.2034 37.3002 13.2034C37.0501 13.2034 36.7414 13.2099 36.3803 13.2227C36.5085 12.9566 36.5694 12.6631 36.5576 12.3679V9.52706C36.5576 9.4886 36.5576 9.4512 36.5576 9.41488C36.3172 9.44142 36.0788 9.48353 35.8439 9.54095C36.0075 9.26524 36.1397 8.9721 36.2382 8.66699C36.3662 8.68903 36.4961 8.69798 36.626 8.6937H37.3803L37.3846 8.69263Z" fill="white"/>
<path d="M40.2297 8.69227H41.405C41.0982 9.50734 40.9229 10.366 40.8857 11.2361C40.8857 12.0706 41.2276 12.4456 41.9702 12.4456C42.3158 12.4655 42.6571 12.3605 42.9317 12.1496V9.55981C42.9562 9.25814 42.89 8.95603 42.7415 8.69227H44.1679C44.0218 8.96131 43.96 9.26803 43.9905 9.57263V12.156C43.9905 12.6165 44.0974 12.9125 44.3452 13.0631L43.2768 13.2928C43.1779 13.2127 43.101 13.1086 43.0535 12.9905C42.6613 13.207 42.2194 13.3175 41.7714 13.311C40.4765 13.311 39.8483 12.6539 39.8483 11.3002C39.8754 10.6714 39.9512 10.0456 40.0748 9.4284C39.8617 9.45575 39.6502 9.49463 39.4412 9.54485C39.6048 9.26915 39.7371 8.976 39.8355 8.6709C39.9635 8.69292 40.0935 8.70187 40.2233 8.69761" fill="white"/>
<path d="M51.9053 8.78461L52.3914 9.13932C51.9086 9.43935 51.465 9.79824 51.0708 10.2077L50.4661 10.8253L51.1371 11.5347C51.5804 12.0304 52.1251 12.425 52.7343 12.6918C52.2675 13.0593 51.9715 13.2837 51.7482 13.2837C51.4982 13.2837 51.0772 12.9225 50.4661 12.18L49.8155 11.3979L49.5857 11.602V12.3712C49.5643 12.6686 49.6304 12.9658 49.7759 13.226H48.3763C48.5235 12.9664 48.5898 12.6687 48.5665 12.3712V9.55279C48.5665 9.50578 48.5665 9.45877 48.5665 9.41497C48.3265 9.44111 48.0884 9.48286 47.8539 9.53997C48.0176 9.26436 48.1499 8.9712 48.2481 8.66602C48.3762 8.688 48.5061 8.69694 48.6359 8.69273H49.7781C49.6303 8.95442 49.5641 9.25428 49.5879 9.55386V10.7109L50.4223 9.73869C51.0142 9.0485 51.3753 8.68738 51.6382 8.68738C51.736 8.69125 51.8301 8.72562 51.9074 8.78568" fill="white"/>
<path d="M67.7444 8.69218H68.9111C68.6041 9.50722 68.4289 10.3659 68.3918 11.236C68.3918 12.0705 68.7337 12.4455 69.4762 12.4455C69.8219 12.4653 70.1632 12.3603 70.4378 12.1495V9.55972C70.4621 9.25806 70.3959 8.95601 70.2476 8.69218H71.6739C71.5279 8.96121 71.4661 9.26794 71.4966 9.57254V12.1559C71.4966 12.6164 71.6034 12.9124 71.8513 13.063L70.7829 13.2927C70.6839 13.2126 70.6071 13.1085 70.5596 12.9904C70.1674 13.207 69.7255 13.3175 69.2775 13.3109C67.9826 13.3109 67.3544 12.6538 67.3544 11.3002C67.3812 10.672 67.4566 10.0469 67.5798 9.43044C67.3703 9.45779 67.1624 9.49631 66.9569 9.54583C67.1207 9.27022 67.253 8.97706 67.3512 8.67188C67.4792 8.6939 67.6092 8.70285 67.739 8.69859" fill="white"/>
<path d="M78.2778 8.76849C78.158 9.04107 78.1025 9.33752 78.1154 9.63497V12.4128H79.0235C79.2479 12.3893 79.4656 12.3225 79.6646 12.2162L79.531 13.0101C79.4915 13.2237 79.3932 13.2601 79.1752 13.2601C78.7618 13.2601 78.2607 13.2077 77.5107 13.2077C77.3066 13.2077 77.0961 13.2205 76.8931 13.2269C77.0197 13.0173 77.0814 12.775 77.0705 12.5303V9.63497C77.0705 9.56338 77.0705 9.49073 77.0705 9.41594C76.8319 9.44217 76.5953 9.48393 76.3621 9.54095C76.5257 9.26523 76.6579 8.97209 76.7564 8.66699C76.8844 8.68905 77.0143 8.698 77.1442 8.6937H78.3868L78.2778 8.76849Z" fill="white"/>
<path fill-rule="evenodd" clip-rule="evenodd" d="M47.6327 8.849C47.2784 8.67684 46.8843 8.60304 46.4916 8.63532C45.4542 8.63532 44.8078 9.23256 44.8078 9.90352C44.8078 11.1557 46.6978 11.2999 46.6978 11.9784C46.6978 12.2273 46.45 12.4677 46.029 12.4677C45.5589 12.48 45.1013 12.3152 44.7469 12.0061L44.6689 12.8427V12.863C44.6689 13.1387 45.2031 13.3032 46.0045 13.3032C47.1583 13.3032 47.8207 12.6621 47.8111 11.9143C47.8036 10.9025 47.216 10.8191 46.5216 10.4185C46.0942 10.1674 45.795 10.0093 45.8431 9.74326C45.8805 9.53706 46.0322 9.4174 46.3773 9.4174C46.7289 9.40813 47.077 9.48827 47.3891 9.65031L47.6327 8.849Z" fill="white"/>
<path fill-rule="evenodd" clip-rule="evenodd" d="M89.214 8.69336C89.3597 8.95585 89.4261 9.25499 89.4052 9.55449V12.374C89.4262 12.6715 89.3597 12.9686 89.214 13.2287H90.6467C90.4995 12.9692 90.4332 12.6715 90.4565 12.374V9.55877C90.4334 9.25924 90.4996 8.95958 90.6467 8.69763L89.214 8.69336Z" fill="white"/>
<path fill-rule="evenodd" clip-rule="evenodd" d="M65.692 11.9735C65.7622 12.3887 65.7513 12.8135 65.6599 13.2246H66.8565C66.8607 11.6057 66.3722 10.0238 65.4558 8.68922H63.7998C63.67 8.69364 63.5401 8.68505 63.412 8.66357C63.3135 8.96867 63.1813 9.26181 63.0177 9.53753C63.327 9.45748 63.644 9.41127 63.9633 9.3997H64.0701C63.1133 10.4031 62.575 11.7335 62.5647 13.1199V13.2267H63.7036C63.6232 12.7981 63.636 12.3572 63.741 11.934L64.7357 12.4372L65.692 11.9735ZM64.9441 9.40932C64.521 9.93132 64.1917 10.5227 63.9707 11.1572L64.7475 11.5568L65.5648 11.1487C65.4642 10.5363 65.2539 9.94707 64.9441 9.40932Z" fill="white"/>
<path fill-rule="evenodd" clip-rule="evenodd" d="M83.0941 11.9735C83.1644 12.3887 83.1535 12.8135 83.0621 13.2246H84.2587C84.2635 11.6058 83.7753 10.0238 82.8591 8.68922H81.2031C81.0733 8.69364 80.9433 8.68505 80.8152 8.66357C80.7169 8.96872 80.5847 9.26188 80.421 9.53753C80.7303 9.45823 81.0474 9.41273 81.3665 9.40184H81.4734C80.5165 10.4052 79.9782 11.7356 79.968 13.122V13.2289H81.1058C81.025 12.8003 81.0377 12.3593 81.1432 11.9361L82.1379 12.4393L83.0941 11.9735ZM82.3463 9.40932C81.9232 9.93131 81.5939 10.5227 81.3729 11.1572L82.1497 11.5568L82.967 11.1487C82.8662 10.5363 82.656 9.94711 82.3463 9.40932Z" fill="white"/>
<path fill-rule="evenodd" clip-rule="evenodd" d="M101.92 11.9735C101.991 12.3887 101.98 12.8135 101.888 13.2246H103.085C103.09 11.6058 102.602 10.0238 101.685 8.68922H100.029C99.8996 8.69364 99.7697 8.68505 99.6416 8.66357C99.5433 8.96872 99.411 9.26187 99.2474 9.53753C99.5567 9.45823 99.8737 9.41273 100.193 9.40184H100.3C99.3429 10.4052 98.8046 11.7356 98.7943 13.122V13.2289H99.9322C99.8513 12.8003 99.8641 12.3593 99.9696 11.9361L100.963 12.4393L101.92 11.9735ZM101.173 9.40932C100.75 9.93131 100.42 10.5227 100.199 11.1572L100.976 11.5568L101.793 11.1487C101.693 10.5363 101.482 9.94711 101.173 9.40932Z" fill="white"/>
<path fill-rule="evenodd" clip-rule="evenodd" d="M70.5083 17.1467C70.1942 17.1116 69.8763 17.1483 69.5785 17.254C69.2806 17.3598 69.0108 17.5319 68.7892 17.7572C68.5676 17.9826 68.4002 18.2554 68.2995 18.555C68.1988 18.8546 68.1676 19.1731 68.208 19.4865C68.208 20.0966 68.4504 20.6817 68.8818 21.1131C69.3132 21.5445 69.8983 21.7868 70.5083 21.7868C71.1184 21.7868 71.7035 21.5445 72.1349 21.1131C72.5663 20.6817 72.8086 20.0966 72.8086 19.4865C72.8486 19.1733 72.8171 18.855 72.7163 18.5557C72.6155 18.2564 72.4482 17.9839 72.2268 17.7586C72.0055 17.5334 71.7359 17.3613 71.4384 17.2553C71.1409 17.1493 70.8222 17.1122 70.5083 17.1467ZM70.5094 18.0079C71.3171 18.0079 71.7584 18.5207 71.7584 19.4865C71.7584 20.4524 71.3182 20.9716 70.5094 20.9716C69.7006 20.9716 69.254 20.4524 69.254 19.4865C69.254 18.5207 69.7006 18.0079 70.5094 18.0079Z" fill="white"/>
<path fill-rule="evenodd" clip-rule="evenodd" d="M43.4777 17.1469C43.1635 17.1115 42.8455 17.1481 42.5476 17.2537C42.2497 17.3594 41.9797 17.5315 41.7581 17.7569C41.5365 17.9823 41.369 18.2552 41.2684 18.5549C41.1678 18.8546 41.1367 19.1732 41.1774 19.4867C41.1774 20.0967 41.4197 20.6818 41.8511 21.1132C42.2825 21.5446 42.8676 21.787 43.4777 21.787C44.0877 21.787 44.6728 21.5446 45.1042 21.1132C45.5356 20.6818 45.7779 20.0967 45.7779 19.4867C45.818 19.1733 45.7865 18.855 45.6856 18.5556C45.5848 18.2562 45.4173 17.9836 45.1959 17.7583C44.9744 17.533 44.7047 17.361 44.4071 17.255C44.1095 17.1491 43.7917 17.1121 43.4777 17.1469ZM43.4777 18.008C44.2865 18.008 44.7266 18.5208 44.7266 19.4867C44.7266 20.4525 44.2865 20.9718 43.4777 20.9718C42.6689 20.9718 42.2223 20.4525 42.2223 19.4867C42.2223 18.5208 42.6689 18.008 43.4777 18.008Z" fill="white"/>
<path fill-rule="evenodd" clip-rule="evenodd" d="M88.3625 17.5892C88.3778 17.5442 88.39 17.4981 88.3988 17.4514C88.3988 17.2804 87.8977 17.1309 87.2011 17.1309C86.1637 17.1309 85.5184 17.7281 85.5184 18.398C85.5184 19.6502 87.4084 19.7955 87.4084 20.4728C87.4084 20.7218 87.1605 20.9622 86.7395 20.9622C86.2694 20.9745 85.8118 20.8098 85.4574 20.5006L85.3795 21.3372V21.3564C85.3795 21.6331 85.9137 21.7977 86.715 21.7977C87.8688 21.7977 88.5313 21.1566 88.5216 20.4087C88.5142 19.3969 87.9265 19.3147 87.2321 18.913C86.8047 18.6619 86.5056 18.5038 86.5536 18.2377C86.5921 18.0315 86.7427 17.9119 87.0878 17.9119C87.4756 17.8987 87.8588 17.999 88.1904 18.2003L88.3625 17.5892Z" fill="white"/>
<path fill-rule="evenodd" clip-rule="evenodd" d="M77.188 17.2185H75.9059C75.7761 17.2229 75.6462 17.2144 75.5181 17.1929C75.42 17.4981 75.2877 17.7913 75.1238 18.0668C75.4335 17.9868 75.7509 17.9406 76.0704 17.929L76.0897 17.9354C76.4952 19.3212 77.1125 20.6359 77.9199 21.833H78.0972L80.0203 17.9749C80.1543 17.703 80.3224 17.4492 80.5203 17.2196H79.1934C79.1858 17.3459 79.1519 17.4692 79.094 17.5818L78.0769 20.0658C76.6784 17.788 77.1891 17.2196 77.1891 17.2196" fill="white"/>
<path fill-rule="evenodd" clip-rule="evenodd" d="M92.8968 17.6267C92.9071 17.5966 92.9157 17.5659 92.9224 17.5348C92.9224 17.3906 92.2717 17.147 91.4704 17.147C91.1604 17.1282 90.85 17.1772 90.5608 17.2906C90.2716 17.404 90.0107 17.579 89.7961 17.8036C89.5815 18.0282 89.4184 18.2968 89.3182 18.5908C89.2181 18.8848 89.1832 19.1972 89.2161 19.506C89.1818 19.8171 89.2172 20.1318 89.3199 20.4274C89.4226 20.723 89.5899 20.992 89.8096 21.2148C90.0293 21.4376 90.296 21.6086 90.5901 21.7154C90.8842 21.8221 91.1985 21.862 91.51 21.832C91.9627 21.86 92.4135 21.7525 92.8049 21.5232C92.8324 21.4882 92.8525 21.448 92.8639 21.405C92.8752 21.362 92.8777 21.3172 92.8711 21.2732V20.4323C92.5241 20.7613 92.0618 20.9409 91.5837 20.9324C91.3984 20.94 91.2136 20.9069 91.0425 20.8354C90.8713 20.7639 90.7179 20.6557 90.5931 20.5185C90.4683 20.3813 90.3752 20.2183 90.3202 20.0412C90.2652 19.864 90.2497 19.677 90.2749 19.4932C90.2749 18.5477 90.7749 18.0081 91.5901 18.0081C91.9765 18.0133 92.3511 18.1426 92.6585 18.3767L92.8968 17.6267Z" fill="white"/>
<path fill-rule="evenodd" clip-rule="evenodd" d="M95.8605 17.1468C95.5465 17.1116 95.2285 17.1482 94.9308 17.254C94.633 17.3598 94.3631 17.5319 94.1416 17.7573C93.9202 17.9827 93.7528 18.2555 93.6523 18.5551C93.5517 18.8547 93.5206 19.1732 93.5613 19.4866C93.5613 20.0966 93.8037 20.6817 94.235 21.1131C94.6664 21.5445 95.2515 21.7868 95.8616 21.7868C96.4717 21.7868 97.0567 21.5445 97.4881 21.1131C97.9195 20.6817 98.1618 20.0966 98.1618 19.4866C98.2019 19.1732 98.1704 18.8548 98.0695 18.5555C97.9687 18.2561 97.8012 17.9835 97.5798 17.7582C97.3583 17.5329 97.0886 17.3608 96.791 17.2549C96.4934 17.149 96.1756 17.112 95.8616 17.1468M95.8616 18.0079C96.6704 18.0079 97.1105 18.5207 97.1105 19.4866C97.1105 20.4524 96.6704 20.9716 95.8616 20.9716C95.0528 20.9716 94.6062 20.4524 94.6062 19.4866C94.6062 18.5207 95.0539 18.0079 95.8616 18.0079Z" fill="white"/>
<path fill-rule="evenodd" clip-rule="evenodd" d="M39.1699 20.8274C38.9883 20.9271 38.7811 20.9706 38.5748 20.9524C37.8707 20.9524 37.3824 20.3872 37.3824 19.493C37.3591 19.2966 37.3794 19.0975 37.442 18.91C37.5046 18.7224 37.6079 18.551 37.7445 18.4081C37.8811 18.2651 38.0477 18.1541 38.2322 18.0831C38.4168 18.0121 38.6147 17.9827 38.812 17.9972C39.2177 18.0001 39.6134 18.1236 39.9487 18.3519L40.1624 17.7013C40.1737 17.6789 40.1806 17.6546 40.1827 17.6297C40.1827 17.5111 40.1827 17.4844 40.015 17.416C39.6007 17.2392 39.1544 17.1498 38.704 17.1532C38.3853 17.122 38.0636 17.1598 37.7608 17.264C37.458 17.3681 37.1812 17.5362 36.9491 17.7569C36.717 17.9775 36.5351 18.2455 36.4157 18.5427C36.2964 18.8398 36.2424 19.1592 36.2574 19.4791C36.2309 19.7984 36.2748 20.1196 36.3861 20.42C36.4973 20.7205 36.6732 20.9928 36.9012 21.2178C37.1293 21.4428 37.404 21.615 37.7059 21.7222C38.0078 21.8294 38.3296 21.8689 38.6485 21.8381C39.1713 21.8341 39.6879 21.7251 40.1678 21.5176V20.1287C40.1387 19.8219 40.2052 19.5137 40.3579 19.2462H39.0182C38.8883 19.2505 38.7584 19.2415 38.6303 19.2195C38.5321 19.5246 38.3998 19.8178 38.2361 20.0934C38.5457 20.0134 38.8631 19.9671 39.1827 19.9556H39.1998V20.0721V20.7836L39.1699 20.8274Z" fill="white"/>
<path d="M48.0088 19.0259C48.1274 19.0398 48.3806 19.0452 48.4073 19.0452C48.933 19.0452 49.1958 18.8603 49.1958 18.4672C49.198 18.3889 49.1832 18.3111 49.1524 18.2391C49.1216 18.1671 49.0756 18.1026 49.0175 18.0501C48.9595 17.9976 48.8907 17.9583 48.8159 17.935C48.7412 17.9116 48.6623 17.9047 48.5847 17.9148C48.3874 17.9103 48.1913 17.9467 48.0088 18.0216V19.0259ZM48.0088 20.9907C48.1759 21.0086 48.3439 21.0175 48.512 21.0174C48.9981 21.0174 49.2877 20.7674 49.2877 20.3465C49.2877 19.9255 49.0174 19.6766 48.5248 19.6766C48.418 19.6766 48.1274 19.683 48.0088 19.6894V20.9907ZM47.0227 17.8924C46.7568 17.9162 46.4932 17.9605 46.2342 18.0248C46.3977 17.7491 46.53 17.456 46.6284 17.1509C46.7564 17.1729 46.8864 17.1819 47.0162 17.1776H47.8581C47.996 17.1776 48.59 17.1776 48.9319 17.1776C49.0902 17.1638 49.2496 17.1831 49.3999 17.2343C49.5503 17.2856 49.6884 17.3676 49.8053 17.4752C49.9222 17.5827 50.0154 17.7135 50.079 17.8591C50.1425 18.0047 50.175 18.1619 50.1744 18.3208C50.1841 18.5192 50.1394 18.7164 50.0453 18.8913C49.9512 19.0662 49.8111 19.2121 49.6402 19.3133C49.8467 19.4013 50.0222 19.549 50.144 19.7375C50.2659 19.926 50.3286 20.1467 50.324 20.3711C50.324 21.2258 49.683 21.7717 48.45 21.7717C48.1413 21.7717 47.6316 21.7386 47.2748 21.7386C47.2021 21.7386 47.0611 21.745 46.8603 21.7578C46.9745 21.5296 47.031 21.2769 47.0248 21.0217L47.0227 17.8924Z" fill="white"/>
<path d="M63.6834 17.2186H63.9846L66.1866 20.255V18.0797C66.2071 17.7804 66.1411 17.4815 65.9965 17.2186H67.379C67.2329 17.4809 67.1667 17.7803 67.1888 18.0797V21.1161C67.1885 21.3309 67.206 21.5453 67.2411 21.7572H66.2796L63.9398 18.5306V20.9035C63.9179 21.2002 63.9817 21.4968 64.1235 21.7583H62.7432C62.8904 21.4987 62.9566 21.201 62.9333 20.9035V18.0797C62.9333 18.0295 62.9333 17.9814 62.9333 17.9355C62.6726 17.9597 62.4141 18.0033 62.1598 18.0659C62.3238 17.7903 62.456 17.4971 62.5541 17.1919C62.6821 17.2139 62.812 17.2228 62.9419 17.2186H63.6898H63.6834Z" fill="white"/>
<path d="M55.1073 17.2196H56.603C56.8167 17.2196 56.9054 17.2452 56.9235 17.4162L56.7259 18.0999C56.5277 18.0314 56.3174 18.0044 56.1084 18.0209H55.3113V18.9824H56.3114C56.455 18.9897 56.5989 18.9764 56.7387 18.9429L56.5635 19.7912C56.4291 19.7677 56.2929 19.7566 56.1564 19.7581H55.3113V20.9472H56.4524C56.6701 20.9615 56.8885 20.9302 57.0934 20.8554L56.9684 21.4793C56.915 21.7486 56.883 21.7614 56.5742 21.7614C56.3306 21.7614 55.7034 21.7283 55.0325 21.7283C54.7825 21.7283 54.4737 21.7347 54.1126 21.7475C54.2408 21.4814 54.3017 21.1879 54.2899 20.8928V18.054C54.2899 18.0155 54.2899 17.9781 54.2899 17.9418C54.0492 17.968 53.8105 18.0097 53.5752 18.0668C53.7391 17.7913 53.8713 17.4981 53.9694 17.1929C54.0974 17.2149 54.2274 17.2239 54.3572 17.2196H55.1115H55.1073Z" fill="white"/>
<path fill-rule="evenodd" clip-rule="evenodd" d="M51.4213 17.2202C51.5668 17.4828 51.6329 17.7819 51.6114 18.0813V20.9009C51.6331 21.1982 51.5669 21.4954 51.4213 21.7556H52.854C52.7068 21.496 52.6405 21.1984 52.6638 20.9009V18.0813C52.6409 17.7818 52.7071 17.4822 52.854 17.2202H51.4213Z" fill="white"/>
<path fill-rule="evenodd" clip-rule="evenodd" d="M59.2399 19.2282C59.3061 19.2347 59.3392 19.2411 59.3467 19.2411H59.5241C60.0828 19.2411 60.3649 18.9911 60.3649 18.584C60.3649 18.1769 60.0892 17.9536 59.5636 17.9536C59.4535 17.9554 59.3436 17.964 59.2345 17.9793L59.2399 19.2282ZM58.2644 17.9515C58.0229 17.9777 57.7834 18.0198 57.5475 18.0776C57.7114 17.802 57.8436 17.5088 57.9417 17.2036C58.0698 17.2257 58.1997 17.2346 58.3296 17.2303H59.2997C59.4332 17.2303 59.5689 17.2239 59.7057 17.2239C60.7837 17.2239 61.3222 17.7581 61.3222 18.5915C61.3359 18.8261 61.2829 19.0598 61.1695 19.2657C61.0561 19.4716 60.8868 19.6412 60.6811 19.755C61.0354 20.628 61.5869 21.4072 62.2923 22.0317C61.8861 22.0676 61.478 21.9883 61.1148 21.803C60.7516 21.6176 60.448 21.3336 60.2388 20.9836L59.6053 19.9954C59.5304 20.0077 59.4546 20.0131 59.3787 20.0114H59.2409V20.912C59.2246 21.2099 59.2932 21.5063 59.4386 21.7668H58.0785C58.2257 21.5072 58.292 21.2095 58.2687 20.912V18.084C58.2687 18.038 58.2687 17.9942 58.2687 17.9515" fill="white"/>
<path fill-rule="evenodd" clip-rule="evenodd" d="M83.5674 20.5067C83.6377 20.9219 83.6268 21.3468 83.5354 21.7578H84.732C84.7365 20.1388 84.248 18.5569 83.3313 17.2224H81.6753C81.5455 17.2269 81.4156 17.2183 81.2875 17.1968C81.1891 17.5019 81.0569 17.7951 80.8932 18.0707C81.2028 17.9905 81.5202 17.9443 81.8398 17.9329H81.9467C80.9899 18.9363 80.4515 20.2667 80.4413 21.6531V21.7599H81.5781C81.4976 21.3313 81.5103 20.8904 81.6155 20.4672L82.6102 20.9704L83.5674 20.5067ZM82.8196 17.9425C82.3965 18.4645 82.0672 19.0559 81.8462 19.6904L82.623 20.09L83.4403 19.6819C83.3396 19.0695 83.1294 18.4803 82.8196 17.9425Z" fill="white"/>
<path d="M110.505 15.0088H23.9601V15.4308H110.505V15.0088Z" fill="white"/>
<path fill-rule="evenodd" clip-rule="evenodd" d="M26.6599 3.27366H18.508C18.2676 3.25229 18.133 2.5589 18.133 2.5589C17.5806 2.31851 17.6308 1.44135 17.6308 1.44135C17.5076 1.29404 17.4375 1.10951 17.432 0.917516C17.4264 0.725521 17.4857 0.537253 17.6002 0.383076C17.7148 0.228899 17.8779 0.1178 18.0634 0.0676971C18.2488 0.0175937 18.4457 0.0314067 18.6223 0.106908C18.8723 0.00103327 19.1526 -0.0084171 19.4092 0.0803838C19.6657 0.169185 19.8802 0.349932 20.0112 0.587691C20.2449 0.578651 20.474 0.653659 20.6571 0.799106C20.8402 0.944553 20.9651 1.15081 21.0091 1.38045C21.1082 1.41484 21.2164 1.41219 21.3136 1.37297C21.355 1.14308 21.4777 0.935756 21.6593 0.788926C21.841 0.642095 22.0694 0.565572 22.3029 0.573354C22.5363 0.581136 22.7592 0.672702 22.9307 0.831303C23.1021 0.989905 23.2108 1.20494 23.2367 1.43707C23.4222 1.47415 23.6044 1.52595 23.7816 1.59199C23.9968 1.48663 24.2368 1.44275 24.4753 1.46518C24.7138 1.48762 24.9415 1.5755 25.1332 1.71913C26.5125 1.58451 26.8319 3.2758 26.8319 3.2758L27.2048 3.70316C27.5757 3.7964 27.9183 3.97875 28.2028 4.23438C28.4873 4.49001 28.7051 4.8112 28.8373 5.17008C29.0638 5.17008 29.3181 5.62202 29.3181 5.62202C30.8139 5.38162 30.6771 7.18616 30.6771 7.18616C30.8507 7.40426 30.9365 7.67943 30.9175 7.95755C31.1837 7.90481 31.459 7.92174 31.7167 8.0067C31.8741 8.09127 31.9974 8.22768 32.0658 8.39281C32.1341 8.55793 32.1433 8.74161 32.0917 8.9127C32.1687 9.05589 32.2152 9.2135 32.2282 9.37557C32.2413 9.53764 32.2205 9.70065 32.1673 9.85429C32.114 10.0079 32.0295 10.1489 31.919 10.2682C31.8086 10.3874 31.6745 10.4825 31.5254 10.5474C31.5065 10.6692 31.4612 10.7855 31.3928 10.8881C31.3243 10.9907 31.2343 11.0771 31.129 11.1414C31.3175 11.215 31.4758 11.3498 31.5785 11.5242C31.6812 11.6986 31.7223 11.9024 31.6953 12.103C33.4849 11.6756 33.1099 13.4331 33.1099 13.4331C33.2052 13.6856 33.2123 13.9629 33.1301 14.2199C33.0479 14.4769 32.8811 14.6986 32.6569 14.8488C32.67 15.1351 32.6028 15.4193 32.4626 15.6693C32.3225 15.9194 32.1152 16.1251 31.8641 16.2633C31.8343 16.5145 31.7134 16.746 31.5244 16.914C31.6181 16.9513 31.7022 17.0091 31.7704 17.0834C31.8386 17.1576 31.8893 17.2463 31.9185 17.3428C31.9478 17.4393 31.9549 17.5411 31.9394 17.6408C31.9239 17.7404 31.8861 17.8353 31.8289 17.9183C31.9755 17.9758 32.1024 18.0747 32.194 18.2029C32.2856 18.3311 32.338 18.4831 32.3449 18.6405C32.4428 18.7398 32.516 18.8608 32.5585 18.9936C32.601 19.1265 32.6117 19.2674 32.5896 19.4051C32.5676 19.5428 32.5134 19.6734 32.4316 19.7863C32.3497 19.8993 32.2424 19.9913 32.1184 20.0551C32.1189 20.2859 32.0373 20.5094 31.8882 20.6856C31.739 20.8618 31.532 20.9791 31.3043 21.0167C31.8203 22.2902 30.7028 22.5456 30.7028 22.5456C30.5895 22.5733 30.5254 22.7934 30.5254 22.7934C30.4488 22.7772 30.3697 22.7769 30.293 22.7928C30.2163 22.8086 30.1438 22.8401 30.0799 22.8853L29.9388 23.2817C29.9723 23.4399 29.9638 23.6041 29.9141 23.758C29.8645 23.9119 29.7754 24.0501 29.6557 24.1588C29.7123 24.5766 29.1215 24.8661 29.1215 24.8661C28.7743 25.9206 27.1984 25.7433 27.1984 25.7433V3.86556L26.6599 3.27366Z" fill="black"/>
<path fill-rule="evenodd" clip-rule="evenodd" d="M27.1984 18.9972V22.6201C27.3987 22.2262 27.739 21.9213 28.1525 21.7654C28.2721 21.0517 28.4986 20.9801 28.4986 20.9801C28.4221 20.7743 28.4119 20.5498 28.4694 20.3379C28.5268 20.126 28.6492 19.9374 28.8192 19.7985C28.768 19.6674 28.6823 19.5526 28.5713 19.4662C28.627 19.3857 28.6586 19.291 28.6624 19.1931C28.6662 19.0953 28.642 18.9984 28.5927 18.9138C28.317 19.0485 28.083 18.7002 28.083 18.7002C27.6866 18.4811 27.192 18.9972 27.192 18.9972" fill="white"/>
<path fill-rule="evenodd" clip-rule="evenodd" d="M27.1984 23.5345V25.1905C28.4324 25.4598 28.7187 24.5495 28.7187 24.5495C29.3202 24.3166 29.1643 23.8625 29.1643 23.8625C29.5745 23.636 29.348 23.1146 29.348 23.1146C29.4042 23.0613 29.4472 22.9957 29.4736 22.9229C29.5 22.8501 29.5091 22.7722 29.5002 22.6953C29.4913 22.6184 29.4646 22.5446 29.4222 22.4798C29.3799 22.415 29.323 22.3609 29.2561 22.3219C29.3341 22.0676 29.6739 22.0323 29.6739 22.0323C29.723 22.3999 30.0489 22.2866 30.1194 22.3368C30.0062 22.1178 30.1974 22.1381 30.1974 22.1381C30.3017 22.1597 30.4097 22.1568 30.5127 22.1297C30.6157 22.1027 30.7111 22.0521 30.7914 21.9821C31.0393 21.5013 30.6216 21.3881 30.6216 21.3881C30.4037 21.3447 30.178 21.3643 29.9709 21.4447L29.9218 21.2535C29.8724 21.2599 29.8248 21.2761 29.7818 21.3012C29.7388 21.3263 29.7012 21.3597 29.6713 21.3995C29.6415 21.4394 29.6199 21.4848 29.6078 21.5331C29.5958 21.5814 29.5935 21.6316 29.6012 21.6808L29.0072 22.1264C28.7593 22.2257 28.8021 22.0836 28.8021 22.0836C29.0638 20.4639 30.2668 21.0793 30.2668 21.0793C30.7188 21.1573 30.7615 20.6124 30.7615 20.6124C30.8747 20.6381 30.9925 20.634 31.1036 20.6003C31.2146 20.5667 31.315 20.5047 31.3949 20.4206C31.4747 20.3364 31.5313 20.2329 31.5591 20.1202C31.5868 20.0076 31.5848 19.8896 31.5532 19.778C32.206 19.6338 32.0201 19.2438 31.9806 19.137C31.8043 19.0515 31.8043 18.9596 31.8043 18.9596C31.5564 18.1882 31.019 19.0162 31.019 19.0162C30.1643 18.4575 30.1205 19.419 30.1205 19.419C29.5478 19.2053 29.1792 20.106 29.1792 20.106C28.645 20.6007 28.988 21.012 28.988 21.012C28.8208 21.1715 28.6963 21.3704 28.6259 21.5905C28.5555 21.8105 28.5415 22.0448 28.5852 22.2717C28.4735 22.2814 28.3654 22.3154 28.2682 22.3713C28.171 22.4271 28.0872 22.5034 28.0225 22.5949C27.9579 22.6865 27.9139 22.791 27.8937 22.9012C27.8735 23.0114 27.8776 23.1247 27.9057 23.2332C27.6439 23.1905 27.1995 23.5452 27.1995 23.5452" fill="white"/>
<path fill-rule="evenodd" clip-rule="evenodd" d="M19.0742 3.27266C18.4236 2.66367 18.6853 2.26088 18.6853 2.26088C17.9065 2.11878 18.2184 1.29932 18.2184 1.29932C17.5774 0.746952 18.2184 0.223433 18.8061 0.683916C19.4151 0.149713 19.7901 1.19996 19.7901 1.19996C20.5967 0.838835 20.6042 2.02797 20.6042 2.02797L21.0145 1.95745C21.0483 2.18035 21.134 2.39221 21.2645 2.57606C21.1762 2.79583 21.1446 3.03428 21.1726 3.26946L19.0742 3.27266Z" fill="white"/>
<path fill-rule="evenodd" clip-rule="evenodd" d="M22.6331 3.27237L22.5263 2.98176C22.7109 2.89718 22.8756 2.77471 23.0098 2.6223C23.144 2.46989 23.2446 2.29096 23.3051 2.09713L23.7998 2.19649C23.8803 2.10775 23.9807 2.03949 24.0928 1.99736C24.205 1.95522 24.3255 1.94044 24.4445 1.95423C24.5635 1.96802 24.6775 2.00998 24.777 2.07664C24.8765 2.1433 24.9587 2.23273 25.0167 2.33752C25.7742 1.88451 26.1343 2.90377 26.1984 3.2713L22.6331 3.27237Z" fill="white"/>
<path fill-rule="evenodd" clip-rule="evenodd" d="M21.8147 2.50633C21.7019 2.41194 21.6195 2.28639 21.5777 2.14539C21.5358 2.00438 21.5365 1.85418 21.5796 1.71357L21.7773 1.76272L21.8478 1.48066C21.8478 1.48066 21.9771 0.907995 22.397 1.03834C22.397 1.03834 22.8051 1.06398 22.663 1.67938L22.5936 1.96037L22.7795 2.00632C22.7795 2.00632 22.4664 2.66659 22.1384 2.59821C22.0736 2.81605 22.0328 3.04032 22.0166 3.26703H21.7047C21.7187 3.01429 21.7588 2.76367 21.8243 2.51915L21.8147 2.50633Z" fill="white"/>
<path fill-rule="evenodd" clip-rule="evenodd" d="M30.2626 17.493L30.3395 17.6319L30.5382 17.5251C30.5382 17.5251 30.9346 17.2943 31.0842 17.6031C31.0842 17.6031 31.2872 17.8488 30.8566 18.0988L30.6579 18.2057L30.7305 18.3371C30.7305 18.3371 30.1963 18.5123 30.0553 18.2858C29.4143 18.7249 29.4752 19.1202 29.4752 19.1202C29.4046 19.0849 29.2615 19.2335 29.2615 19.2335C29.0916 18.4054 28.8159 18.2719 28.8159 18.2719C28.8159 18.2719 28.2508 18.5337 27.9612 18.0881C27.7912 18.0729 27.6335 17.9933 27.5202 17.8656C27.407 17.7379 27.3469 17.5717 27.3522 17.4011C27.2849 17.274 27.2016 17.3937 27.2016 17.3937V13.6008C27.4471 13.5863 27.6888 13.6671 27.8763 13.8263C28.0638 13.9855 28.1826 14.2109 28.208 14.4556C28.8373 14.8231 28.6108 15.0571 28.6108 15.0571C29.1055 15.3263 29.145 15.5165 29.145 15.5165C29.4143 15.3188 29.0809 13.9139 29.0809 13.9139C28.6706 13.9919 28.5008 13.5175 28.5008 13.5175C27.8918 13.6019 27.7358 12.838 27.7358 12.838C27.5659 12.9224 27.2016 12.4555 27.2016 12.4555V4.27686C28.4185 4.65934 28.2433 5.50766 28.2433 5.50766C28.739 5.73416 28.7679 6.01729 28.7679 6.01729C28.6511 6.09043 28.5555 6.19298 28.4908 6.31468C28.4261 6.43638 28.3946 6.57294 28.3993 6.71068C27.6845 7.06432 27.7764 8.05474 27.7764 8.05474C27.2315 8.96715 27.677 9.34216 27.677 9.34216L27.4505 10.0772C27.7565 10.1911 28.022 10.393 28.2134 10.6574C28.4049 10.9219 28.5138 11.2371 28.5264 11.5634C28.9367 11.761 28.9367 11.6627 28.9367 11.6627C28.7858 11.2906 28.7325 10.886 28.7818 10.4875C28.6572 10.4484 28.5429 10.3822 28.447 10.2935C28.3512 10.2049 28.2761 10.0961 28.2274 9.97504C28.1787 9.85394 28.1574 9.72353 28.1651 9.59321C28.1728 9.4629 28.2094 9.33592 28.2721 9.22143C27.7775 8.73317 28.3854 8.15303 28.3854 8.15303C28.1525 7.02052 28.8384 7.14873 28.8384 7.14873C28.8301 7.06911 28.8476 6.98892 28.8884 6.92004C28.9292 6.85116 28.9911 6.79723 29.0649 6.76624C29.0435 6.06537 29.504 6.07284 29.504 6.07284C29.9923 6.0237 29.9143 6.60705 29.9143 6.60705C30.0508 6.70546 30.1464 6.85063 30.1828 7.01493C30.2193 7.17922 30.194 7.35119 30.1119 7.4981C30.2033 7.6412 30.2483 7.80906 30.2407 7.9787C30.233 8.14835 30.1731 8.31148 30.0692 8.44577C30.1185 8.52608 30.151 8.61553 30.1649 8.70873C30.1788 8.80194 30.1737 8.89699 30.15 8.98818C30.1262 9.07937 30.0843 9.16483 30.0267 9.23943C29.9692 9.31402 29.8971 9.37622 29.8149 9.42229C29.8372 9.54783 29.8344 9.67656 29.8065 9.80098C29.7786 9.9254 29.7263 10.043 29.6525 10.147C29.5787 10.251 29.485 10.3393 29.3768 10.4068C29.2686 10.4742 29.148 10.5194 29.0221 10.5398C29.0371 11.5591 29.2775 11.573 29.2775 11.573C29.3669 11.2603 29.538 10.9771 29.7732 10.7525C29.9612 10.624 30.114 10.4505 30.2178 10.2478C30.3215 10.0452 30.3729 9.81978 30.3673 9.59217C30.5563 9.42629 30.6814 9.19952 30.7209 8.95113C30.5233 8.30047 31.1034 8.56223 31.1034 8.56223C31.8812 8.3432 31.5308 9.07934 31.5308 9.07934C31.5845 9.1677 31.6189 9.26644 31.6318 9.36906C31.6447 9.47168 31.6357 9.57587 31.6054 9.67476C31.5751 9.77366 31.5243 9.86503 31.4562 9.94287C31.3881 10.0207 31.3042 10.0832 31.2102 10.1264C31.2051 10.2393 31.1617 10.347 31.0871 10.4319C31.0126 10.5168 30.9113 10.5737 30.8 10.5933L30.4602 11.0463C29.7957 10.8411 29.4271 11.9523 29.4271 11.9523C29.1162 13.0773 29.4698 13.2686 29.4698 13.2686L29.8726 12.8017C29.7998 12.6892 29.7635 12.5571 29.7684 12.4233C29.7734 12.2895 29.8195 12.1605 29.9004 12.0538L30.0777 12.167C30.1958 11.9948 30.34 11.842 30.5051 11.714C31.1707 11.5794 30.9442 12.2482 30.9442 12.2482C30.8646 12.3908 30.7724 12.526 30.6686 12.6521L30.7604 12.7653C30.6789 12.8576 30.5743 12.9266 30.4573 12.9652C30.3404 13.0039 30.2153 13.0109 30.0948 12.9854C29.9036 13.1831 29.6985 13.4128 29.6985 13.4128C29.485 13.8042 29.4198 14.2593 29.5147 14.6949C29.6279 15.7558 29.4014 15.9973 29.4014 15.9973C29.6205 16.1746 29.4014 16.4791 29.4014 16.4791C29.3305 16.654 29.2967 16.8417 29.3021 17.0304C29.1961 17.2821 29.052 17.516 28.8747 17.7238C28.9248 17.9344 29.0269 18.1291 29.1717 18.2901C29.203 17.7088 29.4603 17.1628 29.8886 16.7686C29.691 16.4855 30.1643 16.0325 30.1643 16.0325C30.1643 16.0325 29.754 15.4235 30.1728 14.978C30.3758 14.8081 30.1643 14.6179 30.1643 14.6179C30.1459 14.3879 30.2152 14.1594 30.3583 13.9783C30.5013 13.7971 30.7076 13.6768 30.9357 13.6414C30.9079 13.1179 31.4699 13.0399 31.4699 13.0399C31.6964 12.3818 32.1633 12.6799 32.1633 12.6799C32.8641 12.6371 32.5308 13.3594 32.5308 13.3594C32.5865 13.4727 32.6194 13.596 32.6275 13.722C32.6356 13.8481 32.6188 13.9745 32.578 14.0941C32.5372 14.2136 32.4733 14.324 32.3898 14.4188C32.3064 14.5137 32.2051 14.5911 32.0917 14.6468C32.144 14.8042 32.1559 14.9722 32.1262 15.1354C32.0965 15.2986 32.0262 15.4517 31.9218 15.5806C30.9741 15.9556 31.2423 16.3167 31.2423 16.3167C31.1341 16.4909 30.9771 16.6295 30.7907 16.715C30.6043 16.8005 30.3968 16.8292 30.1942 16.7975C29.9362 16.9813 29.7313 17.2299 29.6 17.5182C29.4687 17.8065 29.4157 18.1243 29.4463 18.4396L29.9698 18.1191C29.9698 18.1191 29.7893 17.8157 30.2615 17.4962" fill="white"/>
<path fill-rule="evenodd" clip-rule="evenodd" d="M6.51086 3.27366H14.6628C14.9032 3.25229 15.0378 2.5589 15.0378 2.5589C15.5902 2.31851 15.54 1.44135 15.54 1.44135C15.6632 1.29404 15.7333 1.10951 15.7388 0.917516C15.7444 0.725521 15.6851 0.537253 15.5705 0.383076C15.456 0.228899 15.2928 0.1178 15.1074 0.0676971C14.922 0.0175937 14.7251 0.0314067 14.5485 0.106908C14.2985 0.00103327 14.0182 -0.0084171 13.7616 0.0803838C13.5051 0.169185 13.2906 0.349932 13.1595 0.587691C12.9259 0.578651 12.6967 0.653659 12.5137 0.799106C12.3306 0.944553 12.2057 1.15081 12.1617 1.38045C12.0626 1.41484 11.9544 1.41219 11.8572 1.37297C11.8158 1.14308 11.6931 0.935756 11.5114 0.788926C11.3298 0.642095 11.1013 0.565572 10.8679 0.573354C10.6344 0.581136 10.4116 0.672702 10.2401 0.831303C10.0686 0.989905 9.95997 1.20494 9.93403 1.43707C9.74857 1.47415 9.56637 1.52595 9.38914 1.59199C9.17401 1.48663 8.93396 1.44275 8.69547 1.46518C8.45698 1.48762 8.22932 1.5755 8.03761 1.71913C6.6583 1.58451 6.33885 3.2758 6.33885 3.2758L5.96597 3.70316C5.59465 3.79609 5.25165 3.9783 4.96677 4.23395C4.68189 4.4896 4.46375 4.81095 4.33131 5.17008C4.10481 5.17008 3.85053 5.62202 3.85053 5.62202C2.35049 5.38162 2.49152 7.18616 2.49152 7.18616C2.3179 7.40426 2.23215 7.67943 2.25113 7.95755C1.98495 7.90481 1.70967 7.92174 1.45196 8.0067C1.29453 8.09127 1.17119 8.22768 1.10285 8.39281C1.0345 8.55793 1.02535 8.74161 1.07695 8.9127C0.999903 9.05589 0.953404 9.2135 0.940394 9.37557C0.927384 9.53764 0.948146 9.70065 1.00137 9.85429C1.05459 10.0079 1.13911 10.1489 1.24959 10.2682C1.36007 10.3874 1.4941 10.4825 1.64321 10.5474C1.66212 10.6692 1.70738 10.7855 1.77584 10.8881C1.8443 10.9907 1.9343 11.0771 2.03958 11.1414C1.85109 11.215 1.69279 11.3498 1.5901 11.5242C1.48741 11.6986 1.44629 11.9024 1.47333 12.103C-0.320523 11.6713 0.0576929 13.4331 0.0576929 13.4331C-0.0381952 13.6859 -0.0456086 13.9636 0.0366622 14.2211C0.118933 14.4786 0.286032 14.7006 0.510697 14.8509C0.497524 15.1372 0.564808 15.4215 0.704922 15.6715C0.845036 15.9215 1.05238 16.1273 1.30345 16.2655C1.33324 16.5166 1.45413 16.7481 1.64321 16.9161C1.5495 16.9534 1.4654 17.0113 1.39716 17.0855C1.32892 17.1598 1.27828 17.2484 1.24903 17.3449C1.21977 17.4414 1.21264 17.5433 1.22816 17.6429C1.24369 17.7425 1.28148 17.8374 1.33871 17.9204C1.19203 17.978 1.0652 18.0768 0.9736 18.205C0.882001 18.3332 0.829572 18.4853 0.822671 18.6427C0.724762 18.742 0.651594 18.8629 0.609084 18.9958C0.566573 19.1286 0.555912 19.2696 0.577962 19.4073C0.600012 19.545 0.654154 19.6756 0.736013 19.7885C0.817871 19.9014 0.925148 19.9935 1.04917 20.0572C1.04864 20.2881 1.13025 20.5116 1.27941 20.6877C1.42856 20.8639 1.63554 20.9813 1.8633 21.0188C1.34726 22.2923 2.46481 22.5477 2.46481 22.5477C2.57806 22.5755 2.64216 22.7956 2.64216 22.7956C2.71875 22.7793 2.79787 22.7791 2.87454 22.7949C2.95121 22.8107 3.02379 22.8422 3.08769 22.8874L3.22872 23.2838C3.19524 23.442 3.20377 23.6062 3.25344 23.7601C3.30311 23.914 3.3922 24.0522 3.51185 24.161C3.45522 24.5787 4.04605 24.8683 4.04605 24.8683C4.39328 25.9228 5.96918 25.7454 5.96918 25.7454V3.86556L6.51086 3.27366Z" fill="black"/>
<path fill-rule="evenodd" clip-rule="evenodd" d="M5.97132 18.9972V22.6201C5.77113 22.2261 5.4308 21.9212 5.01723 21.7654C4.8965 21.0517 4.67 20.9801 4.67 20.9801C4.74651 20.7743 4.75674 20.5498 4.69927 20.3379C4.64179 20.126 4.51949 19.9374 4.34948 19.7985C4.4008 19.6675 4.48642 19.5527 4.59735 19.4662C4.54165 19.3857 4.51006 19.291 4.50627 19.1931C4.50249 19.0953 4.52667 18.9984 4.57598 18.9138C4.8527 19.0485 5.08561 18.7002 5.08561 18.7002C5.48199 18.4811 5.97666 18.9972 5.97666 18.9972" fill="white"/>
<path fill-rule="evenodd" clip-rule="evenodd" d="M5.97131 23.5347V25.1907C4.73731 25.46 4.45097 24.5497 4.45097 24.5497C3.84946 24.3168 4.00545 23.8627 4.00545 23.8627C3.59518 23.6362 3.82168 23.1148 3.82168 23.1148C3.76553 23.0615 3.72254 22.9959 3.69614 22.9231C3.66973 22.8503 3.66062 22.7724 3.66954 22.6955C3.67845 22.6186 3.70514 22.5448 3.74749 22.48C3.78985 22.4152 3.84671 22.3611 3.91356 22.3221C3.83557 22.0678 3.49582 22.0325 3.49582 22.0325C3.44667 22.4001 3.12081 22.2868 3.05029 22.337C3.16354 22.118 2.9723 22.1383 2.9723 22.1383C2.86779 22.1599 2.7597 22.1571 2.65647 22.13C2.55324 22.103 2.45766 22.0524 2.3772 21.9823C2.12933 21.5015 2.54707 21.3883 2.54707 21.3883C2.76493 21.3449 2.99065 21.3645 3.19773 21.4449L3.24795 21.2537C3.29733 21.2601 3.34492 21.2763 3.38793 21.3014C3.43094 21.3264 3.46849 21.3599 3.49837 21.3997C3.52824 21.4396 3.54984 21.485 3.56188 21.5333C3.57392 21.5816 3.57616 21.6318 3.56847 21.681L4.1625 22.1265C4.41037 22.2259 4.36764 22.0838 4.36764 22.0838C4.10481 20.4588 2.89751 21.0774 2.89751 21.0774C2.44451 21.1554 2.40284 20.6105 2.40284 20.6105C2.28967 20.6361 2.17179 20.6318 2.06075 20.5982C1.94971 20.5645 1.84931 20.5026 1.76939 20.4185C1.68947 20.3344 1.63277 20.2309 1.60485 20.1183C1.57692 20.0057 1.57873 19.8878 1.61008 19.7761C0.957287 19.6318 1.14319 19.2419 1.18272 19.135C1.35901 19.0495 1.35901 18.9577 1.35901 18.9577C1.60688 18.1863 2.14429 19.0143 2.14429 19.0143C2.99901 18.4555 3.04281 19.4171 3.04281 19.4171C3.61548 19.2034 3.98408 20.1041 3.98408 20.1041C4.51828 20.5987 4.17532 21.0101 4.17532 21.0101C4.34276 21.1682 4.46799 21.3657 4.53965 21.5846C4.6113 21.8034 4.62709 22.0368 4.58559 22.2633C4.69723 22.2731 4.80539 22.3071 4.90256 22.3629C4.99973 22.4187 5.08357 22.4951 5.14824 22.5866C5.21291 22.6781 5.25687 22.7826 5.27705 22.8928C5.29723 23.0031 5.29315 23.1164 5.2651 23.2249C5.52686 23.1821 5.97131 23.5368 5.97131 23.5368" fill="white"/>
<path fill-rule="evenodd" clip-rule="evenodd" d="M14.0955 3.27266C14.7461 2.66367 14.4854 2.26088 14.4854 2.26088C15.2632 2.11878 14.9523 1.29932 14.9523 1.29932C15.5934 0.746952 14.9523 0.223433 14.3647 0.683916C13.7557 0.149713 13.3807 1.19996 13.3807 1.19996C12.5741 0.838835 12.5677 2.02797 12.5677 2.02797L12.1574 1.95745C12.1224 2.18227 12.035 2.39568 11.902 2.58034C11.9906 2.80004 12.0226 3.03846 11.995 3.27373L14.0955 3.27266Z" fill="white"/>
<path fill-rule="evenodd" clip-rule="evenodd" d="M10.5377 3.27237L10.6445 2.98176C10.4599 2.89718 10.2952 2.77471 10.161 2.6223C10.0268 2.46989 9.92617 2.29096 9.86565 2.09713L9.37098 2.19649C9.29052 2.10775 9.19006 2.03949 9.07793 1.99736C8.96581 1.95522 8.84525 1.94044 8.72627 1.95423C8.60729 1.96802 8.49331 2.00998 8.39379 2.07664C8.29428 2.1433 8.21209 2.23273 8.15406 2.33752C7.39656 1.88451 7.03651 2.90377 6.9724 3.2713L10.5377 3.27237Z" fill="white"/>
<path fill-rule="evenodd" clip-rule="evenodd" d="M11.3561 2.50633C11.4683 2.41151 11.5503 2.28594 11.5921 2.14509C11.6339 2.00423 11.6335 1.85424 11.5911 1.71357L11.3935 1.76272L11.323 1.48066C11.323 1.48066 11.1937 0.907995 10.7738 1.03834C10.7738 1.03834 10.3657 1.06398 10.5078 1.67938L10.5772 1.96037L10.3913 2.00632C10.3913 2.00632 10.7044 2.66659 11.0324 2.59821C11.0974 2.81601 11.1382 3.0403 11.1542 3.26703H11.4661C11.4518 3.01431 11.4117 2.76371 11.3465 2.51915L11.3561 2.50633Z" fill="white"/>
<path fill-rule="evenodd" clip-rule="evenodd" d="M2.90499 17.493L2.82807 17.6319L2.62934 17.5251C2.62934 17.5251 2.23297 17.2943 2.08339 17.6031C2.08339 17.6031 1.88039 17.8488 2.31096 18.0988L2.50968 18.2057L2.43703 18.3371C2.43703 18.3371 2.97123 18.5123 3.11226 18.2858C3.75331 18.7249 3.69241 19.1202 3.69241 19.1202C3.76292 19.0849 3.90609 19.2335 3.90609 19.2335C4.07596 18.4054 4.35161 18.2719 4.35161 18.2719C4.35161 18.2719 4.91787 18.5337 5.20634 18.0881C5.37643 18.0732 5.53435 17.9937 5.64761 17.8659C5.76088 17.7381 5.8209 17.5718 5.81533 17.4011C5.88264 17.274 5.96597 17.3937 5.96597 17.3937V13.6008C5.72044 13.5863 5.47876 13.6671 5.29128 13.8263C5.1038 13.9855 4.98497 14.2109 4.95954 14.4556C4.33025 14.8231 4.55675 15.0571 4.55675 15.0571C4.06208 15.3263 4.02254 15.5165 4.02254 15.5165C3.75331 15.3188 4.08665 13.9139 4.08665 13.9139C4.49692 13.9919 4.66679 13.5175 4.66679 13.5175C5.27578 13.6019 5.43177 12.838 5.43177 12.838C5.60165 12.9224 5.96597 12.4555 5.96597 12.4555V4.27686C4.74906 4.65934 4.92428 5.50766 4.92428 5.50766C4.42854 5.73416 4.40076 6.01729 4.40076 6.01729C4.51738 6.09056 4.61271 6.19317 4.67721 6.31486C4.74171 6.43655 4.77312 6.57304 4.76829 6.71068C5.48305 7.06432 5.39117 8.05474 5.39117 8.05474C5.93606 8.96715 5.49053 9.34216 5.49053 9.34216L5.71703 10.0772C5.41104 10.1911 5.14558 10.393 4.95412 10.6574C4.76267 10.9219 4.65377 11.2371 4.64115 11.5634C4.23088 11.761 4.23088 11.6627 4.23088 11.6627C4.38176 11.2906 4.43508 10.886 4.3858 10.4875C4.51035 10.4484 4.62468 10.3822 4.72054 10.2935C4.81641 10.2049 4.89141 10.0961 4.94016 9.97504C4.98891 9.85394 5.01018 9.72353 5.00245 9.59321C4.99471 9.4629 4.95816 9.33592 4.89543 9.22143C5.3901 8.73317 4.78218 8.15303 4.78218 8.15303C5.01509 7.02052 4.32918 7.14873 4.32918 7.14873C4.33748 7.06911 4.31995 6.98892 4.27915 6.92004C4.23836 6.85116 4.17649 6.79723 4.10267 6.76624C4.12404 6.06537 3.66356 6.07284 3.66356 6.07284C3.1753 6.0237 3.25329 6.60705 3.25329 6.60705C3.11696 6.70561 3.02153 6.85077 2.9851 7.015C2.94867 7.17924 2.97377 7.35113 3.05564 7.4981C2.96421 7.6412 2.91924 7.80906 2.92689 7.9787C2.93454 8.14835 2.99444 8.31148 3.09837 8.44577C3.04908 8.52608 3.01652 8.61553 3.00263 8.70873C2.98875 8.80194 2.99383 8.89699 3.01758 8.98818C3.04133 9.07937 3.08324 9.16483 3.14082 9.23943C3.1984 9.31402 3.27045 9.37622 3.35265 9.42229C3.33032 9.54783 3.33319 9.67656 3.36107 9.80098C3.38896 9.9254 3.44131 10.043 3.51508 10.147C3.58886 10.251 3.68258 10.3393 3.79079 10.4068C3.899 10.4742 4.01955 10.5194 4.14541 10.5398C4.13045 11.5591 3.89006 11.573 3.89006 11.573C3.80066 11.2603 3.62954 10.9771 3.39432 10.7525C3.20673 10.6247 3.05397 10.4522 2.94987 10.2505C2.84577 10.0489 2.79362 9.82442 2.79815 9.59751C2.6091 9.43163 2.484 9.20486 2.44451 8.95647C2.64217 8.30581 2.06202 8.56757 2.06202 8.56757C1.28422 8.34855 1.63466 9.08468 1.63466 9.08468C1.58091 9.17304 1.54647 9.27178 1.53361 9.3744C1.52074 9.47703 1.52974 9.58121 1.56002 9.68011C1.59029 9.779 1.64115 9.87037 1.70926 9.94821C1.77737 10.026 1.86118 10.0886 1.95518 10.1317C1.96028 10.2446 2.0037 10.3524 2.07829 10.4372C2.15287 10.5221 2.25416 10.579 2.36545 10.5986L2.7052 11.0516C3.36975 10.8465 3.73835 11.9576 3.73835 11.9576C4.04925 13.0827 3.69561 13.2739 3.69561 13.2739L3.29282 12.807C3.36559 12.6946 3.40196 12.5625 3.39699 12.4287C3.39202 12.2949 3.34595 12.1658 3.26505 12.0591L3.08769 12.1724C2.96957 12.0001 2.8254 11.8473 2.66033 11.7194C1.99471 11.5847 2.22121 12.2536 2.22121 12.2536C2.30081 12.3962 2.39306 12.5313 2.49686 12.6574L2.40498 12.7707C2.48657 12.8629 2.59116 12.9319 2.70808 12.9706C2.82501 13.0092 2.9501 13.0162 3.0706 12.9908C3.26184 13.1884 3.46697 13.4181 3.46697 13.4181C3.68039 13.8095 3.74563 14.2647 3.65074 14.7002C3.53749 15.7611 3.76399 16.0026 3.76399 16.0026C3.54497 16.18 3.76399 16.4845 3.76399 16.4845C3.83492 16.6594 3.86875 16.8471 3.86335 17.0358C3.96931 17.2875 4.11346 17.5214 4.29071 17.7291C4.24064 17.9398 4.13852 18.1345 3.9937 18.2954C3.9657 17.7134 3.71107 17.1654 3.28428 16.7686C3.48193 16.4855 3.00863 16.0325 3.00863 16.0325C3.11899 15.8784 3.17753 15.6932 3.1758 15.5037C3.17407 15.3142 3.11217 15.1301 2.99901 14.978C2.79602 14.8081 3.00863 14.6179 3.00863 14.6179C3.027 14.3879 2.9577 14.1594 2.81463 13.9783C2.67157 13.7971 2.46531 13.6768 2.23724 13.6414C2.26502 13.1179 1.70304 13.0399 1.70304 13.0399C1.47654 12.3818 1.00964 12.6799 1.00964 12.6799C0.308768 12.6371 0.642111 13.3594 0.642111 13.3594C0.586372 13.4727 0.553516 13.596 0.545419 13.722C0.537322 13.8481 0.554144 13.9745 0.594923 14.0941C0.635702 14.2136 0.699639 14.324 0.78308 14.4188C0.866522 14.5137 0.967833 14.5911 1.08123 14.6468C1.02891 14.8042 1.01704 14.9722 1.04673 15.1354C1.07642 15.2986 1.1467 15.4517 1.2511 15.5806C2.19878 15.9556 1.93061 16.3167 1.93061 16.3167C2.03876 16.4909 2.19585 16.6295 2.38225 16.715C2.56864 16.8005 2.7761 16.8292 2.97871 16.7975C3.23669 16.9813 3.44165 17.2299 3.57294 17.5182C3.70424 17.8065 3.75724 18.1243 3.7266 18.4396L3.20308 18.1191C3.20308 18.1191 3.38364 17.8157 2.9114 17.4962" fill="white"/>
<path fill-rule="evenodd" clip-rule="evenodd" d="M10.9255 28.8855C10.7878 29.0996 10.6226 29.2946 10.434 29.4657C10.3274 29.526 10.2088 29.5624 10.0867 29.5722C9.9645 29.5819 9.84167 29.5649 9.72676 29.5223C9.38947 29.395 9.03783 29.3096 8.67972 29.268C8.24967 29.2945 7.82555 29.3819 7.42007 29.5277C7.38654 29.5983 7.36914 29.6755 7.36914 29.7536C7.36914 29.8318 7.38654 29.909 7.42007 29.9796C7.76372 29.8422 8.12672 29.7592 8.49596 29.7339C8.87388 29.7013 9.25079 29.8068 9.55688 30.0309C9.71993 30.1049 9.89922 30.1359 10.0776 30.1209C10.2561 30.106 10.4277 30.0455 10.5761 29.9454C10.5761 29.9454 10.434 30.7948 11.4533 30.8514C11.9511 30.8447 12.4273 30.6469 12.7835 30.299C12.841 30.541 12.9887 30.7518 13.1963 30.8886C13.404 31.0254 13.656 31.0778 13.901 31.0352C14.1943 30.9958 14.475 30.891 14.7223 30.7284C14.9696 30.5659 15.1771 30.3497 15.3295 30.096C15.8294 30.3839 16.2598 30.7782 16.5902 31.251C16.9232 30.7868 17.3507 30.3983 17.8445 30.111C17.998 30.3629 18.2063 30.5769 18.454 30.7371C18.7017 30.8973 18.9824 30.9996 19.2751 31.0362C19.5166 31.0545 19.7573 30.9922 19.9595 30.859C20.1618 30.7258 20.3141 30.5292 20.3926 30.3001C20.7487 30.6481 21.225 30.8458 21.7228 30.8525C22.7421 30.7959 22.6 29.9465 22.6 29.9465C22.7484 30.0466 22.92 30.107 23.0985 30.122C23.2769 30.1369 23.4562 30.1059 23.6192 30.0319C23.9253 29.8079 24.3022 29.7024 24.6802 29.7349C25.049 29.7604 25.4117 29.8433 25.755 29.9807C25.7887 29.9101 25.8061 29.8329 25.8061 29.7547C25.8061 29.6765 25.7887 29.5993 25.755 29.5287C25.3495 29.383 24.9254 29.2956 24.4953 29.2691C24.1372 29.3106 23.7856 29.396 23.4483 29.5234C23.3334 29.566 23.2106 29.583 23.0884 29.5732C22.9662 29.5634 22.8477 29.5271 22.741 29.4668C22.5571 29.2931 22.3956 29.0971 22.2602 28.8834C22.6481 28.8385 23.0605 28.8043 23.5017 28.7915C24.1903 28.8246 24.8762 28.6854 25.4975 28.3866C26.017 28.0713 26.4558 27.6391 26.7789 27.1244C27.102 26.6097 27.3005 26.0267 27.3587 25.4218V3.07715H5.82067V25.4218C5.87865 26.0263 6.07688 26.609 6.3996 27.1236C6.72233 27.6381 7.16064 28.0702 7.6797 28.3855C8.30098 28.6842 8.98691 28.8234 9.67548 28.7905C10.1125 28.8022 10.5217 28.8353 10.9063 28.8813L10.9255 28.8855Z" fill="black"/>
<path d="M26.8373 3.60059H16.8455V14.9673H26.8373V3.60059Z" fill="white"/>
<path d="M16.3359 3.60059H6.31641V14.9673H16.3359V3.60059Z" fill="white"/>
<path fill-rule="evenodd" clip-rule="evenodd" d="M14.0613 8.35212H13.5869V8.7485L13.9619 8.77628C14.0035 8.79222 14.0414 8.8164 14.0733 8.84736C14.1053 8.87832 14.1307 8.91542 14.1479 8.95644C14.1652 8.99745 14.174 9.04154 14.1738 9.08604C14.1736 9.13054 14.1644 9.17454 14.1467 9.2154C13.948 9.55515 13.588 9.20151 13.588 9.20151L13.0762 8.54123L13.0132 8.94402H12.6243L13.479 10.0349L12.807 10.6289H13.2536V11.0328L13.8946 10.5584L14.2151 10.912L13.6275 11.8672C13.4929 12.1364 13.8252 12.2945 13.8252 12.2945L13.245 13.2924L13.5922 13.2358L13.776 13.5894L14.448 12.443L14.4331 12.2101L14.7728 11.7144V12.4078C14.9149 12.7475 15.1831 12.6343 15.1831 12.6343V13.7251L15.494 13.4997L15.8338 13.7326V12.3992H15.6575V9.57545L16.0132 9.27095L15.6596 8.97394L15.4192 9.21433V10.8404L14.9737 10.2464L15.2141 9.5669H14.9876L15.2493 8.86069H14.9951L15.3156 8.18652H14.0613V8.35212Z" fill="black"/>
<path d="M25.2656 5.27051H18.43V13.2942H25.2656V5.27051Z" fill="white"/>
<path d="M25.2656 5.27051H18.43V13.2942H25.2656V5.27051Z" stroke="black" stroke-width="0.372873" stroke-miterlimit="3.864"/>
<path fill-rule="evenodd" clip-rule="evenodd" d="M6.32496 15.4585H16.3359V30.2324C14.4128 28.2227 8.94896 28.2794 8.94896 28.2794C8.26679 28.1494 7.64409 27.8046 7.17195 27.2954C6.69981 26.7861 6.40301 26.1392 6.32496 25.4492V15.4585Z" fill="white"/>
<path fill-rule="evenodd" clip-rule="evenodd" d="M26.8426 15.4585H16.8445V30.2324C18.7676 28.2227 24.2325 28.2794 24.2325 28.2794C24.9136 28.1499 25.535 27.8049 26.005 27.2953C26.475 26.7857 26.7686 26.1385 26.8426 25.4492V15.4585Z" fill="white"/>
<path d="M17.8445 15.3086V29.6423" stroke="black" stroke-width="0.459414" stroke-miterlimit="3.864"/>
<path d="M18.8403 15.3086V29.2" stroke="black" stroke-width="0.459414" stroke-miterlimit="3.864"/>
<path d="M19.836 15.3086V28.8987" stroke="black" stroke-width="0.459414" stroke-miterlimit="3.864"/>
<path d="M20.8318 15.3086V28.7043" stroke="black" stroke-width="0.459414" stroke-miterlimit="3.864"/>
<path d="M21.8275 15.3086V28.528" stroke="black" stroke-width="0.459414" stroke-miterlimit="3.864"/>
<path d="M22.8233 15.3086V28.4393" stroke="black" stroke-width="0.459414" stroke-miterlimit="3.864"/>
<path d="M23.819 15.3086V28.4211" stroke="black" stroke-width="0.459414" stroke-miterlimit="3.864"/>
<path d="M24.8158 15.3086V28.263" stroke="black" stroke-width="0.459414" stroke-miterlimit="3.864"/>
<path d="M25.8116 15.3086V27.7138" stroke="black" stroke-width="0.459414" stroke-miterlimit="3.864"/>
<path fill-rule="evenodd" clip-rule="evenodd" d="M16.3359 13.8094V14.9643H6.31641V12.5455L7.05788 11.8596H7.09527V10.3766L7.30896 10.0614V9.06567L7.01087 8.84451V7.75474H7.28545V7.9994H7.58033V7.75474H7.83034V8.45454H8.22137V7.2793H8.56754V7.52396H8.88806V7.28143H9.23743V8.41822H9.62846V7.75367H9.87847V7.99833H10.1701V7.75367H10.4415V8.84344L10.1434 9.0646V10.0614L10.4105 10.3766V11.8628H10.465L10.5964 12.0081V12.0241L10.7952 11.8008L10.746 11.7228L10.8988 11.0337L11.0056 11.0262L11.0687 9.84454L10.949 9.78791L11.0409 8.10411L11.3945 7.6511C11.4196 7.60248 11.4557 7.56048 11.5001 7.52854C11.5445 7.49659 11.5958 7.47562 11.6499 7.46734C11.7249 7.43627 11.8087 7.43356 11.8855 7.45971C11.9624 7.48585 12.0271 7.53907 12.0676 7.60943C12.129 7.60242 12.1908 7.61891 12.2406 7.65557C12.2903 7.69224 12.3243 7.74637 12.3358 7.80709C12.3358 7.80709 12.527 7.77183 12.5623 8.02611C12.5623 8.02611 12.8315 8.01222 12.76 8.25902L12.6328 8.4289C12.6156 8.43964 12.6014 8.45442 12.5912 8.47195C12.5811 8.48949 12.5754 8.50924 12.5746 8.52948C12.5739 8.54973 12.5781 8.56984 12.587 8.58807C12.5958 8.60629 12.609 8.62208 12.6253 8.63404L12.5826 8.76865C12.5826 8.76865 12.526 8.93853 12.2503 8.93105C12.2249 8.92703 12.1988 8.92934 12.1745 8.93777C12.1501 8.9462 12.1282 8.96049 12.1107 8.97939C12.0931 8.99829 12.0805 9.02121 12.074 9.04613C12.0674 9.07106 12.067 9.09721 12.073 9.1223L12.2151 9.87018H12.0377L12.2364 11.5967L12.3347 11.6598L12.2856 12.1769C12.2917 12.204 12.287 12.2325 12.2724 12.2563C12.2579 12.2801 12.2346 12.2972 12.2076 12.304L11.6734 12.866L11.6029 12.8382L11.4683 12.975L11.9651 13.5263L16.3359 13.8094Z" fill="black"/>
<path d="M8.42437 9.25342H8.04723V9.80578H8.42437V9.25342Z" fill="white"/>
<path d="M9.40197 9.25342H9.02482V9.80578H9.40197V9.25342Z" fill="white"/>
<path fill-rule="evenodd" clip-rule="evenodd" d="M8.4169 11.8518V11.0921C8.4169 11.0921 8.53229 10.8079 8.75558 10.8304C8.97888 10.8079 9.09427 11.0921 9.09427 11.0921L9.09961 11.8518H8.4169Z" fill="white"/>
<path fill-rule="evenodd" clip-rule="evenodd" d="M21.2185 8.31125V6.16162H22.4215V8.31232H24.5722V9.51534H19.07V8.31232H21.2207L21.2185 8.31125Z" fill="white"/>
<path d="M21.2185 8.31125V6.16162H22.4215V8.31232H24.5722V9.51534H19.07V8.31232H21.2207L21.2185 8.31125Z" stroke="black" stroke-width="0.372873" stroke-miterlimit="3.864"/>
<path fill-rule="evenodd" clip-rule="evenodd" d="M22.5476 12.0071H25.2646V13.2945H18.4268V12.0071H21.1373C21.1987 11.9717 21.251 11.9226 21.2903 11.8637C21.3296 11.8047 21.3547 11.7375 21.3638 11.6673V10.9013C21.3406 10.8541 21.308 10.8122 21.2679 10.7782C21.2278 10.7442 21.1812 10.7188 21.1309 10.7036L21.1149 10.7143H20.6875C20.6875 10.7143 19.9941 10.6716 20.008 9.63947C19.8877 9.55804 19.7892 9.44835 19.7211 9.32002C19.653 9.19169 19.6174 9.04862 19.6174 8.90334C19.6174 8.75806 19.653 8.615 19.7211 8.48666C19.7892 8.35833 19.8877 8.24865 20.008 8.16721C19.986 8.02223 19.9982 7.87411 20.0435 7.73464C20.0888 7.59517 20.166 7.4682 20.269 7.36384C20.3721 7.25947 20.498 7.18059 20.6369 7.13347C20.7757 7.08634 20.9237 7.07228 21.0689 7.0924C21.1551 6.97492 21.2677 6.87939 21.3976 6.81354C21.5275 6.74769 21.6712 6.71338 21.8168 6.71338C21.9625 6.71338 22.1061 6.74769 22.2361 6.81354C22.366 6.87939 22.4786 6.97492 22.5647 7.0924C22.5647 7.0924 23.7816 6.96526 23.6545 8.16721C23.7767 8.25531 23.8763 8.37119 23.9449 8.50531C24.0136 8.63942 24.0494 8.78794 24.0494 8.9386C24.0494 9.08927 24.0136 9.23778 23.9449 9.37189C23.8763 9.50601 23.7767 9.62189 23.6545 9.70999C23.7005 9.9235 23.6631 10.1465 23.5498 10.3333C23.4366 10.5201 23.2561 10.6564 23.0455 10.7143L22.4931 10.7036C22.4931 10.7036 22.2794 10.7741 22.2955 10.9013V11.6673C22.3324 11.8062 22.4172 11.9276 22.5348 12.0103L22.5476 12.0071Z" fill="black"/>
<path fill-rule="evenodd" clip-rule="evenodd" d="M14.8305 29.8244C14.732 30.0099 14.5905 30.1692 14.4178 30.2889C14.2452 30.4086 14.0463 30.4853 13.838 30.5124C13.705 30.5119 13.5747 30.4746 13.4616 30.4046C13.3484 30.3347 13.2568 30.2348 13.1969 30.116C13.0901 29.8041 13.3209 29.5337 13.4982 29.3286C13.956 29.4449 14.4006 29.6078 14.8252 29.8147L14.8305 29.8244Z" fill="white"/>
<path fill-rule="evenodd" clip-rule="evenodd" d="M11.4907 28.9595C12.0163 29.0385 12.4897 29.1304 12.9213 29.2041C12.8028 29.5958 12.5452 29.9306 12.1969 30.1454C12.0658 30.2513 11.9085 30.3197 11.7416 30.3434C11.5748 30.3671 11.4046 30.3452 11.2492 30.28C11.1682 30.2242 11.1042 30.147 11.0642 30.0571C11.0242 29.9672 11.0099 29.868 11.0227 29.7704C11.1022 29.4605 11.2687 29.1799 11.5024 28.9616L11.4907 28.9595Z" fill="white"/>
<path fill-rule="evenodd" clip-rule="evenodd" d="M18.3563 29.8163C18.7836 29.611 19.2307 29.4495 19.6907 29.3345C19.8681 29.5385 20.0892 29.8088 19.9834 30.1165C19.9235 30.2353 19.832 30.3352 19.7188 30.4051C19.6057 30.4751 19.4754 30.5124 19.3424 30.5129C19.1342 30.4859 18.9354 30.4093 18.7629 30.2896C18.5904 30.1698 18.4491 30.0105 18.3509 29.8249L18.3563 29.8163Z" fill="white"/>
<path fill-rule="evenodd" clip-rule="evenodd" d="M20.273 29.2018C20.7003 29.1292 21.1608 29.0394 21.6769 28.9614C21.9104 29.1793 22.0765 29.4596 22.1555 29.7691C22.1684 29.8667 22.154 29.9659 22.114 30.0559C22.0741 30.1458 22.01 30.2229 21.929 30.2788C21.7736 30.3438 21.6035 30.3656 21.4366 30.342C21.2698 30.3183 21.1125 30.2499 20.9813 30.1442C20.6357 29.926 20.3812 29.5895 20.2655 29.1975L20.273 29.2018Z" fill="white"/>
<path fill-rule="evenodd" clip-rule="evenodd" d="M7.76303 4.15323L7.54935 4.04639L7.65619 4.24618L10.9789 7.63837L10.589 8.06573L10.715 8.17898L11.8988 6.89689L11.7728 6.76761L11.3603 7.21741L7.76303 4.15323Z" fill="black"/>
<path fill-rule="evenodd" clip-rule="evenodd" d="M21.4322 5.04946L21.1897 4.80693L21.5978 4.39773L21.1897 3.9896L21.4322 3.74707L21.8414 4.1552L22.2506 3.74707L22.4942 3.9896L22.085 4.39773L22.4942 4.80693L22.2506 5.04946L21.8425 4.64026L21.4322 5.04946Z" fill="black"/>
<path fill-rule="evenodd" clip-rule="evenodd" d="M21.4322 14.8035L21.1897 14.5609L21.5978 14.1517L21.1897 13.7436L21.4322 13.5L21.8414 13.9092L22.2506 13.5L22.4942 13.7436L22.085 14.1517L22.4942 14.5609L22.2506 14.8035L21.8425 14.3943L21.4322 14.8035Z" fill="black"/>
<path fill-rule="evenodd" clip-rule="evenodd" d="M17.1981 5.04936L16.9556 4.80684L17.3659 4.39871L16.9577 3.99058L17.2003 3.74805L17.6095 4.15618L18.0176 3.74805L18.2601 3.99058L17.852 4.39871L18.2601 4.80791L18.0176 5.05043L17.6084 4.64123L17.1981 5.04936Z" fill="black"/>
<path fill-rule="evenodd" clip-rule="evenodd" d="M17.1981 9.9265L16.9556 9.68397L17.3659 9.27477L16.9577 8.86557L17.2003 8.62305L17.6095 9.03225L18.0176 8.62305L18.2601 8.86557L17.852 9.27477L18.2601 9.68397L18.0176 9.9265L17.6084 9.5173L17.1981 9.9265Z" fill="black"/>
<path fill-rule="evenodd" clip-rule="evenodd" d="M17.1981 14.8035L16.9556 14.5609L17.3659 14.1517L16.9577 13.7436L17.2003 13.5L17.6095 13.9092L18.0176 13.5L18.2601 13.7436L17.852 14.1517L18.2601 14.5609L18.0176 14.8035L17.6084 14.3943L17.1981 14.8035Z" fill="black"/>
<path fill-rule="evenodd" clip-rule="evenodd" d="M25.6663 5.04946L25.4238 4.80693L25.8319 4.39773L25.4238 3.9896L25.6663 3.74707L26.0755 4.1552L26.4836 3.74707L26.7261 3.9896L26.318 4.39773L26.7261 4.80693L26.4836 5.04946L26.0744 4.64026L25.6663 5.04946Z" fill="black"/>
<path fill-rule="evenodd" clip-rule="evenodd" d="M25.6663 9.9265L25.4238 9.68397L25.8319 9.27477L25.4238 8.86557L25.6663 8.62305L26.0755 9.03225L26.4836 8.62305L26.7261 8.86557L26.318 9.27477L26.7261 9.68397L26.4836 9.9265L26.0744 9.5173L25.6663 9.9265Z" fill="black"/>
<path fill-rule="evenodd" clip-rule="evenodd" d="M25.6663 14.8035L25.4238 14.5609L25.8319 14.1517L25.4238 13.7436L25.6663 13.5L26.0755 13.9092L26.4836 13.5L26.7261 13.7436L26.318 14.1517L26.7261 14.5609L26.4836 14.8035L26.0744 14.3943L25.6663 14.8035Z" fill="black"/>
<path fill-rule="evenodd" clip-rule="evenodd" d="M16.5272 28.051L16.5346 28.7711C16.3774 28.9519 16.1589 29.0683 15.9211 29.0979C15.6833 29.1274 15.4429 29.0681 15.2461 28.9314C14.9493 28.7912 14.6238 28.7223 14.2957 28.7303C13.9675 28.7383 13.6458 28.8229 13.3561 28.9773C11.8497 28.6605 10.3171 28.4841 8.77802 28.4506C8.29433 28.3709 7.83717 28.1751 7.44572 27.8801L7.61773 27.7283C7.88029 27.5799 8.17587 27.4995 8.47746 27.4947C8.77906 27.4898 9.07707 27.5606 9.34427 27.7006C9.4912 27.836 9.68159 27.9147 9.88129 27.9226C10.081 27.9304 10.277 27.8669 10.434 27.7433C10.7126 27.5838 11.0261 27.4952 11.3469 27.4854C11.6677 27.4755 11.986 27.5446 12.2738 27.6867C12.437 27.8388 12.6518 27.9233 12.8748 27.9233C13.0979 27.9233 13.3126 27.8388 13.4758 27.6867C13.7462 27.5359 14.0508 27.4567 14.3604 27.4567C14.6701 27.4567 14.9746 27.5359 15.2451 27.6867C15.4403 27.8244 15.6793 27.8858 15.9167 27.8593C16.1542 27.8327 16.3736 27.72 16.5336 27.5424V26.5349C16.3763 26.7157 16.1578 26.8321 15.92 26.8617C15.6822 26.8913 15.4418 26.832 15.2451 26.6952C14.9746 26.5444 14.6701 26.4652 14.3604 26.4652C14.0508 26.4652 13.7462 26.5444 13.4758 26.6952C13.3126 26.8473 13.0979 26.9318 12.8748 26.9318C12.6518 26.9318 12.437 26.8473 12.2738 26.6952C11.986 26.5532 11.6677 26.484 11.3469 26.4939C11.0261 26.5038 10.7126 26.5923 10.434 26.7518C10.2771 26.8755 10.0812 26.9393 9.88149 26.9316C9.68179 26.924 9.49133 26.8455 9.34427 26.7102C9.0771 26.5701 8.77908 26.4993 8.47746 26.5041C8.17585 26.509 7.88026 26.5894 7.61773 26.7379C7.61773 26.7379 7.08994 27.145 6.67753 26.9377C6.3454 26.4637 6.16507 25.9 6.16042 25.3212L6.32923 25.3885L6.71279 25.6385C7.14015 25.9035 7.61773 25.4932 7.61773 25.4932C7.88026 25.3447 8.17585 25.2643 8.47746 25.2594C8.77908 25.2546 9.0771 25.3254 9.34427 25.4655C9.4912 25.6009 9.68159 25.6796 9.88129 25.6875C10.081 25.6953 10.277 25.6318 10.434 25.5082C10.7126 25.3487 11.0261 25.2601 11.3469 25.2503C11.6677 25.2404 11.986 25.3095 12.2738 25.4516C12.437 25.6037 12.6518 25.6882 12.8748 25.6882C13.0979 25.6882 13.3126 25.6037 13.4758 25.4516C13.7464 25.3012 14.0509 25.2224 14.3604 25.2224C14.67 25.2224 14.9745 25.3012 15.2451 25.4516C15.4383 25.5905 15.6753 25.6547 15.9122 25.6323C16.1491 25.6099 16.3698 25.5024 16.5336 25.3298V24.3009C16.3763 24.4817 16.1578 24.5981 15.92 24.6276C15.6822 24.6572 15.4418 24.5979 15.2451 24.4612C14.9746 24.3103 14.6701 24.2312 14.3604 24.2312C14.0508 24.2312 13.7462 24.3103 13.4758 24.4612C13.3126 24.6132 13.0979 24.6978 12.8748 24.6978C12.6518 24.6978 12.437 24.6132 12.2738 24.4612C11.986 24.3191 11.6677 24.25 11.3469 24.2599C11.0261 24.2697 10.7126 24.3583 10.434 24.5178C10.277 24.6413 10.081 24.7049 9.88129 24.6971C9.68159 24.6892 9.4912 24.6105 9.34427 24.4751C9.07707 24.3351 8.77906 24.2643 8.47746 24.2692C8.17587 24.274 7.88029 24.3544 7.61773 24.5028C7.61773 24.5028 7.13695 24.9131 6.71279 24.6481L6.16042 24.4345V23.1855L6.71279 23.3992C7.14015 23.6641 7.61773 23.2539 7.61773 23.2539C7.75222 23.1703 7.89842 23.1073 8.0515 23.0669L8.05898 23.0733V21.9974C7.80871 21.9235 7.58041 21.7893 7.39412 21.6066C7.20784 21.4238 7.06927 21.1981 6.99057 20.9493C6.87148 20.3465 6.87637 19.7258 7.00495 19.125C7.13352 18.5242 7.3831 17.9558 7.73846 17.4546C8.47459 16.2099 9.18081 17.4546 9.18081 17.4546C9.56475 17.9604 9.8249 18.5492 9.94044 19.1736L9.93403 19.1384C10.0724 18.5341 10.3264 17.9624 10.6819 17.4546C11.417 16.2099 12.1253 17.4546 12.1253 17.4546C12.4774 17.9249 12.7267 18.464 12.8572 19.0369C12.9985 18.4712 13.2399 17.9353 13.5698 17.4546C14.3059 16.2099 15.0132 17.4546 15.0132 17.4546C15.3732 17.9535 15.6256 18.5218 15.7543 19.1234C15.883 19.725 15.8854 20.3468 15.7611 20.9493C15.6805 21.1936 15.5438 21.4156 15.362 21.5976C15.1802 21.7796 14.9583 21.9165 14.7141 21.9974V23.021C14.8984 23.0573 15.0758 23.1226 15.2397 23.2143C15.4348 23.3522 15.6737 23.4138 15.9112 23.3874C16.1486 23.361 16.3681 23.2485 16.5282 23.0712L16.5207 23.8191L16.5272 28.051Z" fill="black"/>
<path fill-rule="evenodd" clip-rule="evenodd" d="M8.89127 23.0764V21.9973C9.13546 21.9164 9.35734 21.7795 9.53915 21.5975C9.72096 21.4155 9.85766 21.1935 9.9383 20.9492C10.0172 21.1979 10.1558 21.4235 10.342 21.6063C10.5283 21.789 10.7565 21.9232 11.0067 21.9973L10.9992 23.0518C10.8022 23.0933 10.613 23.1654 10.4383 23.2655C10.2814 23.3895 10.0854 23.4533 9.88554 23.4455C9.68571 23.4376 9.49527 23.3587 9.34854 23.2228C9.20629 23.1494 9.05509 23.0948 8.89874 23.0604L8.89127 23.0764Z" fill="white"/>
<path fill-rule="evenodd" clip-rule="evenodd" d="M13.8935 23.0409C13.7479 23.0808 13.6079 23.1389 13.4769 23.214C13.3137 23.3661 13.0989 23.4506 12.8759 23.4506C12.6528 23.4506 12.4381 23.3661 12.2749 23.214C12.1358 23.1436 11.9882 23.0915 11.8358 23.0591V21.9971C12.0645 21.9205 12.2744 21.7963 12.4518 21.6328C12.6291 21.4693 12.7698 21.2701 12.8647 21.0483C12.955 21.2724 13.0939 21.4736 13.2712 21.6376C13.4485 21.8017 13.66 21.9244 13.8903 21.9971V23.0484L13.8935 23.0409Z" fill="white"/>
<path d="M71.9571 38.0524H72.2915C72.2915 38.4979 72.6633 38.6935 73.064 38.6935C73.3845 38.6935 73.736 38.593 73.736 38.2105C73.736 37.4819 72.0383 37.9616 72.0383 36.9883C72.0383 36.4541 72.5137 36.2116 72.9999 36.2116C73.5426 36.2116 73.9614 36.468 73.9764 37.0513H73.642C73.6383 36.9711 73.6179 36.8926 73.5821 36.8207C73.5462 36.7489 73.4957 36.6853 73.4338 36.6342C73.3719 36.5831 73.3 36.5455 73.2227 36.5238C73.1453 36.5022 73.0643 36.497 72.9849 36.5086C72.6847 36.5086 72.3909 36.6154 72.3909 36.9626C72.3909 37.6165 74.0886 37.155 74.0886 38.1999C74.0886 38.765 73.5351 38.9915 73.0522 38.9915C72.4582 38.9883 71.9571 38.6935 71.9571 38.0524ZM49.4137 37.6518C49.3913 37.4721 49.4071 37.2898 49.4601 37.1167C49.5132 36.9436 49.6023 36.7838 49.7216 36.6476C49.8409 36.5115 49.9877 36.4021 50.1523 36.3268C50.3169 36.2514 50.4956 36.2118 50.6766 36.2105C50.9447 36.1779 51.2148 36.252 51.4288 36.4166C51.6428 36.5813 51.7836 36.8234 51.8209 37.0909H51.4683C51.4356 36.9118 51.336 36.752 51.1898 36.6436C51.0436 36.5353 50.8616 36.4866 50.6809 36.5075C50.0398 36.5075 49.7706 37.0684 49.7706 37.6336C49.7563 37.7638 49.7689 37.8955 49.8076 38.0206C49.8463 38.1456 49.9104 38.2614 49.9957 38.3607C50.0811 38.46 50.186 38.5407 50.3038 38.5978C50.4217 38.6548 50.55 38.687 50.6809 38.6924C50.7963 38.7012 50.9123 38.6848 51.0207 38.6443C51.1291 38.6038 51.2274 38.5401 51.3088 38.4578C51.3901 38.3754 51.4526 38.2763 51.4917 38.1674C51.5309 38.0584 51.5459 37.9423 51.5356 37.827H50.6884V37.5278H51.8518V38.9253H51.6285L51.5356 38.5941C51.4331 38.7212 51.3027 38.8229 51.1544 38.8913C51.0061 38.9597 50.8441 38.9929 50.6809 38.9883C50.5087 38.9879 50.3385 38.9524 50.1805 38.884C50.0225 38.8157 49.88 38.7159 49.7618 38.5908C49.6436 38.4657 49.552 38.3178 49.4927 38.1562C49.4335 37.9946 49.4077 37.8226 49.4169 37.6507L49.4137 37.6518ZM41.7939 38.0524H42.1283C42.1283 38.4979 42.5001 38.6935 42.9007 38.6935C43.2213 38.6935 43.5738 38.593 43.5738 38.2105C43.5738 37.4819 41.8761 37.9616 41.8761 36.9883C41.8761 36.4541 42.3516 36.2116 42.8377 36.2116C43.3794 36.2116 43.7993 36.468 43.8142 37.0513H43.4798C43.476 36.9711 43.4555 36.8925 43.4195 36.8206C43.3836 36.7488 43.333 36.6853 43.271 36.6342C43.209 36.583 43.137 36.5455 43.0596 36.5238C42.9822 36.5022 42.9012 36.497 42.8217 36.5086C42.5215 36.5086 42.2277 36.6154 42.2277 36.9626C42.2277 37.6165 43.9253 37.155 43.9253 38.1999C43.9253 38.765 43.3719 38.9915 42.889 38.9915C42.295 38.9883 41.7939 38.6935 41.7939 38.0524ZM37.3333 38.2148V38.0524H37.6869V38.1593C37.6869 38.468 37.7681 38.6871 38.1143 38.6871C38.4348 38.6871 38.5417 38.5022 38.5417 38.2084V36.2725H38.8953V38.2661C38.9015 38.3681 38.885 38.4702 38.8469 38.565C38.8088 38.6598 38.7501 38.745 38.675 38.8143C38.6 38.8837 38.5104 38.9354 38.4129 38.9659C38.3154 38.9964 38.2123 39.0048 38.1111 38.9905C38.006 39.0034 37.8994 38.9922 37.7993 38.9578C37.6992 38.9235 37.6083 38.8668 37.5333 38.792C37.4584 38.7173 37.4014 38.6265 37.3668 38.5265C37.3321 38.4265 37.3207 38.3199 37.3333 38.2148ZM81.8462 38.9242L81.5567 38.1261H80.4349L80.1379 38.9242H79.7735L80.8099 36.2725H81.1999L82.2362 38.9242H81.8462ZM80.546 37.8291H81.4456L81.0033 36.5919H80.9958L80.546 37.8291ZM77.9893 38.9253V36.2725H78.3419V38.6229H79.749V38.92L77.9893 38.9253ZM77.0074 38.9253V36.2725H77.36V38.9253H77.0074ZM76.3087 38.9253L76.0192 38.1272H74.8973L74.6003 38.9253H74.236L75.2724 36.2735H75.6623L76.6987 38.9253H76.3087ZM75.0074 37.8291H75.9027L75.4647 36.5919H75.4572L75.0074 37.8291ZM70.0489 38.9253L68.66 36.797H68.6525V38.9253H68.317V36.2725H68.692L70.0895 38.4232H70.097V36.2725H70.4314V38.9253H70.0489ZM66.021 38.9253V36.2725H67.8523V36.5695H66.3736V37.4114H67.7518V37.7084H66.3736V38.6262H67.864V38.9232L66.021 38.9253ZM65.1952 38.9253C65.0947 38.8185 65.1503 38.5311 65.099 38.2714C65.0477 38.0118 64.9986 37.7917 64.6567 37.7917H63.7945V38.9253H63.4419V36.2725H64.6845C65.1855 36.2725 65.4911 36.5396 65.4911 36.9669C65.5065 37.1155 65.4687 37.2647 65.3844 37.388C65.3 37.5112 65.1747 37.6006 65.0306 37.64V37.6464C65.3394 37.7063 65.3981 37.936 65.4281 38.1924C65.4087 38.4463 65.4628 38.7003 65.5841 38.9242L65.1952 38.9253ZM63.7934 37.4947H64.5295C64.8565 37.4947 65.1428 37.4092 65.1428 37.0225C65.1487 36.9599 65.1403 36.8969 65.1184 36.838C65.0966 36.7791 65.0617 36.7259 65.0164 36.6824C64.9711 36.6389 64.9166 36.6061 64.8569 36.5866C64.7972 36.567 64.7339 36.5612 64.6716 36.5695H63.7945L63.7934 37.4947ZM62.7613 38.9253L62.4718 38.1272H61.35L61.0529 38.9253H60.6886L61.725 36.2735H62.1149L63.1513 38.9253H62.7613ZM61.4557 37.8291H62.3553L61.913 36.5919H61.9066L61.4557 37.8291ZM60.0177 38.9253V36.2725H60.3713V38.9253H60.0177ZM59.1768 38.9253C59.0764 38.8185 59.132 38.5311 59.0807 38.2714C59.0294 38.0118 58.9802 37.7917 58.6384 37.7917H57.7761V38.9253H57.4193V36.2725H58.6683C59.1693 36.2725 59.4749 36.5396 59.4749 36.9669C59.4903 37.1155 59.4525 37.2647 59.3682 37.388C59.2839 37.5112 59.1585 37.6006 59.0144 37.64V37.6464C59.3221 37.7063 59.382 37.936 59.4119 38.1924C59.3925 38.4463 59.4466 38.7003 59.5679 38.9242L59.1768 38.9253ZM57.7761 37.4947H58.5123C58.8392 37.4947 59.1245 37.4092 59.1245 37.0225C59.1303 36.9599 59.122 36.8969 59.1001 36.838C59.0782 36.7791 59.0434 36.7259 58.9981 36.6824C58.9528 36.6389 58.8983 36.6061 58.8386 36.5866C58.7789 36.567 58.7156 36.5612 58.6533 36.5695H57.7761V37.4947ZM56.6009 38.9253C56.5005 38.8185 56.556 38.5311 56.5047 38.2714C56.4535 38.0118 56.4043 37.7917 56.0624 37.7917H55.2002V38.9253H54.8477V36.2725H56.0966C56.5977 36.2725 56.9033 36.5396 56.9033 36.9669C56.9187 37.1155 56.8809 37.2647 56.7965 37.388C56.7122 37.5112 56.5868 37.6006 56.4428 37.64V37.6464C56.7505 37.7063 56.8103 37.936 56.8402 38.1924C56.8208 38.4463 56.875 38.7003 56.9962 38.9242L56.6009 38.9253ZM55.1959 37.4947H55.9321C56.259 37.4947 56.5443 37.4092 56.5443 37.0225C56.5501 36.9599 56.5418 36.8969 56.5199 36.838C56.498 36.7791 56.4632 36.7259 56.4179 36.6824C56.3726 36.6389 56.3181 36.6061 56.2584 36.5866C56.1987 36.567 56.1354 36.5612 56.0731 36.5695H55.1959V37.4947ZM54.1585 38.9253L53.869 38.1272H52.7472L52.4502 38.9253H52.0858L53.1222 36.2735H53.5121L54.5485 38.9253H54.1585ZM52.8583 37.8291H53.7579L53.3156 36.5919H53.3081L52.8583 37.8291ZM48.5515 38.9253L47.1626 36.797V38.9253H46.8261V36.2725H47.2011L48.5985 38.4232H48.606V36.2725H48.9404V38.9253H48.5515ZM46.1423 38.9253L45.8527 38.1272H44.7331L44.436 38.9253H44.0728L45.1091 36.2735H45.4991L46.5355 38.9253H46.1423ZM44.8452 37.8291H45.7448L45.3015 36.5919H45.294L44.8452 37.8291ZM41.2618 38.9253L40.9723 38.1272H39.8494L39.5524 38.9253H39.188L40.2244 36.2735H40.6144L41.6507 38.9253H41.2618ZM39.9605 37.8291H40.859L40.4178 36.5919H40.4103L39.9605 37.8291ZM62.3671 33.5064V31.8119H62.7197V33.5064C62.7087 33.6051 62.7203 33.705 62.7535 33.7986C62.7867 33.8922 62.8408 33.9771 62.9115 34.0468C62.9823 34.1165 63.0679 34.1693 63.162 34.2012C63.2561 34.233 63.3562 34.2431 63.4547 34.2307C63.5505 34.2391 63.647 34.2259 63.7369 34.1919C63.8269 34.158 63.9081 34.1043 63.9745 34.0347C64.0408 33.9651 64.0907 33.8815 64.1204 33.7901C64.1501 33.6986 64.1588 33.6016 64.146 33.5064V31.8119H64.4986V33.5064C64.5136 33.6461 64.4968 33.7875 64.4493 33.9198C64.4018 34.0522 64.325 34.172 64.2245 34.2703C64.124 34.3687 64.0025 34.4429 63.8692 34.4875C63.7358 34.5321 63.5941 34.5459 63.4547 34.5277C62.772 34.5267 62.3671 34.2115 62.3671 33.5064ZM59.788 33.5918H60.1213C60.1213 34.0374 60.4931 34.2329 60.8938 34.2329C61.2143 34.2329 61.5658 34.1324 61.5658 33.75C61.5658 33.0224 59.8681 33.501 59.8681 32.5277C59.8681 31.9935 60.3435 31.751 60.8297 31.751C61.3724 31.751 61.7912 32.0074 61.8072 32.5907H61.4728C61.469 32.5105 61.4485 32.4319 61.4125 32.3601C61.3766 32.2882 61.326 32.2247 61.264 32.1736C61.202 32.1225 61.13 32.0849 61.0526 32.0632C60.9752 32.0416 60.8942 32.0364 60.8147 32.048C60.5145 32.048 60.2217 32.1548 60.2217 32.501C60.2217 33.1548 61.9194 32.6944 61.9194 33.7382C61.9194 34.3034 61.366 34.5299 60.8831 34.5299C60.289 34.5267 59.788 34.2339 59.788 33.5918ZM49.7449 33.1388C49.7287 32.9622 49.7495 32.7842 49.806 32.616C49.8625 32.4479 49.9534 32.2934 50.0729 32.1624C50.1925 32.0314 50.338 31.9267 50.5003 31.8551C50.6625 31.7835 50.8379 31.7465 51.0153 31.7465C51.1926 31.7465 51.368 31.7835 51.5303 31.8551C51.6926 31.9267 51.8381 32.0314 51.9577 32.1624C52.0772 32.2934 52.1681 32.4479 52.2246 32.616C52.281 32.7842 52.3018 32.9622 52.2856 33.1388C52.3018 33.3154 52.281 33.4935 52.2246 33.6616C52.1681 33.8297 52.0772 33.9842 51.9577 34.1153C51.8381 34.2463 51.6926 34.3509 51.5303 34.4225C51.368 34.4941 51.1926 34.5311 51.0153 34.5311C50.8379 34.5311 50.6625 34.4941 50.5003 34.4225C50.338 34.3509 50.1925 34.2463 50.0729 34.1153C49.9534 33.9842 49.8625 33.8297 49.806 33.6616C49.7495 33.4935 49.7287 33.3154 49.7449 33.1388ZM50.0975 33.1388C50.0975 33.673 50.3689 34.2307 51.0153 34.2307C51.6617 34.2307 51.933 33.673 51.933 33.1388C51.933 32.6046 51.6606 32.0458 51.0142 32.0458C50.3678 32.0458 50.0965 32.6036 50.0965 33.1378L50.0975 33.1388ZM43.3997 33.1912C43.377 33.0115 43.3927 32.829 43.4457 32.6558C43.4987 32.4826 43.5878 32.3226 43.7071 32.1863C43.8264 32.05 43.9733 31.9406 44.1379 31.8652C44.3026 31.7898 44.4814 31.7501 44.6625 31.7488C44.93 31.7172 45.1991 31.7917 45.4123 31.9563C45.6254 32.1209 45.7655 32.3625 45.8025 32.6292H45.4532C45.4207 32.4494 45.3207 32.2889 45.1737 32.1805C45.0268 32.072 44.8439 32.0238 44.6625 32.0458C44.0215 32.0458 43.7523 32.6068 43.7523 33.1709C43.7379 33.301 43.7505 33.4327 43.7893 33.5578C43.828 33.6829 43.892 33.7987 43.9774 33.898C44.0628 33.9973 44.1677 34.078 44.2855 34.135C44.4034 34.1921 44.5317 34.2243 44.6625 34.2297C44.7779 34.2383 44.8938 34.2218 45.0022 34.1812C45.1105 34.1406 45.2087 34.0769 45.29 33.9946C45.3713 33.9123 45.4338 33.8133 45.473 33.7044C45.5123 33.5956 45.5274 33.4795 45.5173 33.3643H44.6658V33.0672H45.8292V34.4647H45.6059L45.513 34.1335C45.4105 34.2606 45.28 34.3622 45.1317 34.4306C44.9835 34.499 44.8215 34.5322 44.6583 34.5277C44.4866 34.5266 44.3169 34.4905 44.1595 34.4219C44.0022 34.3532 43.8604 34.2533 43.7427 34.1283C43.625 34.0032 43.534 33.8556 43.475 33.6944C43.4161 33.5331 43.3904 33.3616 43.3997 33.1901V33.1912ZM40.7981 33.5117V31.8119H41.1507V33.5064C41.1397 33.6051 41.1513 33.705 41.1846 33.7986C41.2178 33.8922 41.2718 33.9771 41.3426 34.0468C41.4133 34.1165 41.4989 34.1693 41.593 34.2012C41.6871 34.233 41.7872 34.2431 41.8858 34.2307C41.9816 34.2391 42.078 34.2259 42.168 34.1919C42.2579 34.158 42.3391 34.1043 42.4055 34.0347C42.4719 33.9651 42.5218 33.8815 42.5515 33.7901C42.5812 33.6986 42.5899 33.6016 42.577 33.5064V31.8119H42.9296V33.5064C42.9447 33.6461 42.9278 33.7875 42.8804 33.9198C42.8329 34.0522 42.756 34.172 42.6555 34.2703C42.555 34.3687 42.4336 34.4429 42.3002 34.4875C42.1669 34.5321 42.0252 34.5459 41.8858 34.5277C41.202 34.5267 40.7981 34.2115 40.7981 33.5064V33.5117ZM66.8223 34.4733L65.4323 32.3365V34.4647H65.0979V31.8119H65.4729L66.8704 33.9626H66.8779V31.8119H67.2123V34.4647L66.8223 34.4733ZM59.2548 34.4733L58.9653 33.6752H57.8467L57.5496 34.4733H57.1853L58.2217 31.8215H58.6116L59.648 34.4733H59.2548ZM57.9535 33.3685H58.852L58.4108 32.1313H58.4033L57.9535 33.3685ZM55.9321 34.4647V32.1089H55.0485V31.8119H57.1693V32.1089H56.2847V34.4594L55.9321 34.4647ZM54.5047 34.4647C54.4043 34.3579 54.4598 34.0705 54.4085 33.8108C54.3573 33.5512 54.3081 33.3322 53.9662 33.3322H53.104V34.4647H52.7504V31.8119H54.0004C54.5015 31.8119 54.8071 32.079 54.8071 32.5063C54.8225 32.6549 54.7847 32.8041 54.7003 32.9274C54.616 33.0506 54.4906 33.14 54.3466 33.1794V33.1869C54.6543 33.2457 54.7141 33.4764 54.744 33.7329C54.7248 33.9867 54.7789 34.2408 54.9 34.4647H54.5047ZM53.104 33.0309H53.8401C54.1671 33.0309 54.4523 32.9454 54.4523 32.5587C54.4582 32.4961 54.4499 32.4331 54.428 32.3742C54.4061 32.3153 54.3712 32.2621 54.3259 32.2186C54.2807 32.1751 54.2262 32.1423 54.1665 32.1228C54.1068 32.1032 54.0434 32.0974 53.9812 32.1057H53.104V33.0309ZM49.1338 34.4647L48.1723 33.1228L47.7299 33.5352V34.4647H47.3763V31.8119H47.7289V33.1378L49.0772 31.8119H49.5345L48.4159 32.8803L49.5793 34.4626L49.1338 34.4647ZM46.3998 34.4647V31.8119H46.7523V34.4647H46.3998ZM39.8569 34.4647V32.2574H39.8483L39.0203 34.4647H38.7222L37.891 32.2574H37.8824V34.4647H37.547V31.8119H38.032L38.8675 34.0406L39.7073 31.8119H40.1902V34.4647H39.8569Z" fill="black"/>
<path d="M63.7507 50.3475H64.084C64.084 50.793 64.4558 50.9885 64.8565 50.9885C65.177 50.9885 65.5285 50.8881 65.5285 50.5056C65.5285 49.777 63.8308 50.2567 63.8308 49.2834C63.8308 48.7492 64.3073 48.5066 64.7924 48.5066C65.3351 48.5066 65.7539 48.763 65.77 49.3464H65.4355C65.4319 49.2662 65.4115 49.1876 65.3757 49.1158C65.3398 49.0439 65.2893 48.9804 65.2274 48.9293C65.1655 48.8781 65.0936 48.8405 65.0162 48.8189C64.9389 48.7973 64.8579 48.7921 64.7785 48.8036C64.4772 48.8036 64.1844 48.9105 64.1844 49.2577C64.1844 49.9116 65.8821 49.45 65.8821 50.4949C65.8821 51.0601 65.3287 51.2866 64.8458 51.2866C64.2518 51.2834 63.7507 50.9885 63.7507 50.3475ZM60.897 49.8945C60.8807 49.7179 60.9015 49.5398 60.958 49.3717C61.0145 49.2036 61.1054 49.0491 61.2249 48.918C61.3445 48.787 61.49 48.6824 61.6523 48.6108C61.8145 48.5392 61.9899 48.5022 62.1673 48.5022C62.3447 48.5022 62.5201 48.5392 62.6823 48.6108C62.8446 48.6824 62.9901 48.787 63.1097 48.918C63.2292 49.0491 63.3201 49.2036 63.3766 49.3717C63.4331 49.5398 63.4538 49.7179 63.4376 49.8945C63.4538 50.0711 63.4331 50.2492 63.3766 50.4173C63.3201 50.5854 63.2292 50.7399 63.1097 50.8709C62.9901 51.0019 62.8446 51.1066 62.6823 51.1782C62.5201 51.2498 62.3447 51.2868 62.1673 51.2868C61.9899 51.2868 61.8145 51.2498 61.6523 51.1782C61.49 51.1066 61.3445 51.0019 61.2249 50.8709C61.1054 50.7399 61.0145 50.5854 60.958 50.4173C60.9015 50.2492 60.8807 50.0711 60.897 49.8945ZM61.2495 49.8945C61.2495 50.4287 61.5209 50.9864 62.1673 50.9864C62.8137 50.9864 63.0851 50.4287 63.0851 49.8945C63.0851 49.3603 62.8137 48.8015 62.1673 48.8015C61.5209 48.8015 61.2485 49.3592 61.2485 49.8934L61.2495 49.8945ZM58.4503 50.3475H58.7847C58.7847 50.793 59.1565 50.9885 59.5572 50.9885C59.8777 50.9885 60.2303 50.8881 60.2303 50.5056C60.2303 49.777 58.5326 50.2567 58.5326 49.2834C58.5326 48.7492 59.008 48.5066 59.4941 48.5066C60.0369 48.5066 60.4557 48.763 60.4707 49.3464H60.1363C60.1325 49.2661 60.1119 49.1876 60.076 49.1157C60.04 49.0439 59.9894 48.9804 59.9274 48.9292C59.8654 48.8781 59.7934 48.8405 59.7161 48.8189C59.6387 48.7973 59.5576 48.7921 59.4781 48.8036C59.1779 48.8036 58.8841 48.9105 58.8841 49.2577C58.8841 49.9116 60.5818 49.45 60.5818 50.4949C60.5818 51.0601 60.0283 51.2866 59.5454 51.2866C58.9557 51.2834 58.4503 50.9885 58.4503 50.3475ZM40.3943 49.8945C40.3781 49.7179 40.3988 49.5398 40.4553 49.3717C40.5118 49.2036 40.6027 49.0491 40.7222 48.918C40.8418 48.787 40.9873 48.6824 41.1496 48.6108C41.3118 48.5392 41.4872 48.5022 41.6646 48.5022C41.842 48.5022 42.0174 48.5392 42.1796 48.6108C42.3419 48.6824 42.4874 48.787 42.607 48.918C42.7265 49.0491 42.8174 49.2036 42.8739 49.3717C42.9304 49.5398 42.9511 49.7179 42.9349 49.8945C42.9511 50.0711 42.9304 50.2492 42.8739 50.4173C42.8174 50.5854 42.7265 50.7399 42.607 50.8709C42.4874 51.0019 42.3419 51.1066 42.1796 51.1782C42.0174 51.2498 41.842 51.2868 41.6646 51.2868C41.4872 51.2868 41.3118 51.2498 41.1496 51.1782C40.9873 51.1066 40.8418 51.0019 40.7222 50.8709C40.6027 50.7399 40.5118 50.5854 40.4553 50.4173C40.3988 50.2492 40.3781 50.0711 40.3943 49.8945ZM40.7468 49.8945C40.7468 50.4287 41.0182 50.9864 41.6646 50.9864C42.311 50.9864 42.5824 50.4287 42.5824 49.8945C42.5824 49.3603 42.311 48.8015 41.6646 48.8015C41.0182 48.8015 40.7426 49.3592 40.7426 49.8934L40.7468 49.8945ZM79.2094 51.2204V48.5675H81.0417V48.8645H79.562V49.7064H80.9402V50.0035H79.562V50.9212H81.0514V51.2182L79.2094 51.2204ZM77.11 51.2204V48.5675H77.4626V50.918H78.8665V51.215L77.11 51.2204ZM74.5309 51.2204V48.5675H75.4924C75.7307 48.5466 75.9706 48.5794 76.1944 48.6637C76.2912 48.7195 76.3712 48.8004 76.4261 48.8977C76.481 48.9951 76.5087 49.1054 76.5064 49.2171C76.5116 49.345 76.4763 49.4713 76.4055 49.578C76.3347 49.6847 76.232 49.7663 76.1121 49.8111V49.8186C76.2607 49.8442 76.3945 49.9238 76.4878 50.0422C76.5811 50.1605 76.6273 50.3093 76.6175 50.4597C76.6183 50.5638 76.5976 50.6669 76.5568 50.7627C76.5159 50.8585 76.4558 50.9448 76.3801 51.0163C76.3044 51.0878 76.2148 51.1429 76.1168 51.1782C76.0189 51.2135 75.9147 51.2282 75.8108 51.2214L74.5309 51.2204ZM74.8835 50.9234H75.7681C75.8333 50.9303 75.8991 50.923 75.9612 50.9019C76.0232 50.8807 76.0799 50.8464 76.1273 50.8011C76.1747 50.7559 76.2116 50.7008 76.2356 50.6398C76.2595 50.5788 76.2699 50.5133 76.266 50.4479C76.266 50.1028 75.9871 50.0056 75.6901 50.0056H74.8835V50.9234ZM74.8835 49.7086H75.5886C75.9903 49.7086 76.1538 49.5676 76.1538 49.2812C76.1538 48.9094 75.8974 48.8613 75.5886 48.8613H74.8835V49.7086ZM73.5479 51.2204V48.5675H73.9005V51.2204H73.5479ZM72.5394 51.2204L71.1504 49.0921H71.1462V51.2204H70.815V48.5675H71.191L72.5874 50.7182H72.5949V48.5675H72.9293V51.2204H72.5394ZM68.5115 51.2204V48.5675H70.3427V48.8645H68.8641V49.7064H70.2423V50.0035H68.8641V50.9212H70.3534V51.2182L68.5115 51.2204ZM66.9463 51.2204V48.8699H66.0616V48.5675H68.1824V48.8645H67.2978V51.215L66.9463 51.2204ZM54.885 51.2204V48.5675H55.7953C55.9672 48.544 56.1422 48.5603 56.3067 48.6153C56.4713 48.6703 56.621 48.7624 56.7442 48.8845C56.8675 49.0066 56.9609 49.1554 57.0174 49.3194C57.0739 49.4835 57.0919 49.6583 57.0699 49.8304C57.0699 50.7182 56.68 51.2193 55.7953 51.2193L54.885 51.2204ZM55.2376 50.9234H55.8252C56.0667 50.9234 56.7163 50.8561 56.7163 49.8795C56.7163 49.2481 56.4823 48.8656 55.8317 48.8656H55.2376V50.9234ZM54.1991 51.2204L53.9096 50.4223H52.7878L52.4907 51.2204H52.1275L53.1638 48.5686H53.5538L54.5902 51.2204H54.1991ZM52.8999 50.1242H53.7995L53.3572 48.887H53.3497L52.8999 50.1242ZM49.793 51.2204V48.5675H50.7033C50.8752 48.544 51.0502 48.5603 51.2147 48.6153C51.3793 48.6703 51.529 48.7624 51.6522 48.8845C51.7754 49.0066 51.8689 49.1554 51.9254 49.3194C51.9819 49.4835 51.9999 49.6583 51.9779 49.8304C51.9779 50.7182 51.5879 51.2193 50.7033 51.2193L49.793 51.2204ZM50.1456 50.9234H50.7332C50.9747 50.9234 51.6243 50.8561 51.6243 49.8795C51.6243 49.2481 51.3903 48.8656 50.7396 48.8656H50.1456V50.9234ZM48.8112 51.2204V48.5675H49.1637V51.2204H48.8112ZM46.6968 51.2204V48.5675H47.0494V50.918H48.4532V51.215L46.6968 51.2204ZM45.7149 51.2204V48.5675H46.0686V51.2204H45.7149ZM44.0386 51.2204L43.1027 48.5675H43.4862L44.2437 50.8678H44.2512L45.0162 48.5675H45.3869L44.4403 51.2204H44.0386ZM39.5801 51.2204V49.0131H39.5748L38.7457 51.2204H38.4423L37.6164 49.0131H37.6089V51.2204H37.2745V48.5675H37.7574L38.5929 50.7962L39.4327 48.5675H39.9156V51.2204H39.5801ZM64.6054 45.4328C64.5892 45.2562 64.61 45.0782 64.6664 44.91C64.7229 44.7419 64.8138 44.5874 64.9334 44.4564C65.0529 44.3254 65.1984 44.2207 65.3607 44.1491C65.523 44.0775 65.6984 44.0405 65.8757 44.0405C66.0531 44.0405 66.2285 44.0775 66.3908 44.1491C66.553 44.2207 66.6986 44.3254 66.8181 44.4564C66.9376 44.5874 67.0285 44.7419 67.085 44.91C67.1415 45.0782 67.1623 45.2562 67.1461 45.4328C67.1623 45.6094 67.1415 45.7875 67.085 45.9556C67.0285 46.1237 66.9376 46.2783 66.8181 46.4093C66.6986 46.5403 66.553 46.6449 66.3908 46.7165C66.2285 46.7881 66.0531 46.8251 65.8757 46.8251C65.6984 46.8251 65.523 46.7881 65.3607 46.7165C65.1984 46.6449 65.0529 46.5403 64.9334 46.4093C64.8138 46.2783 64.7229 46.1237 64.6664 45.9556C64.61 45.7875 64.5892 45.6094 64.6054 45.4328ZM64.958 45.4328C64.958 45.967 65.2293 46.5247 65.8757 46.5247C66.5221 46.5247 66.7935 45.967 66.7935 45.4328C66.7935 44.8986 66.5221 44.3409 65.8757 44.3409C65.2293 44.3409 64.958 44.8986 64.958 45.4328ZM71.3289 46.7587V44.1069H73.1655V44.404H71.6814V45.2469H73.0586V45.5397H71.6804V46.4574H73.1697V46.7544L71.3289 46.7587ZM68.6792 46.7587V44.1069H69.5895C69.7614 44.0834 69.9364 44.0998 70.1009 44.1547C70.2655 44.2097 70.4152 44.3018 70.5384 44.4239C70.6616 44.546 70.7551 44.6948 70.8116 44.8588C70.8681 45.0229 70.886 45.1977 70.8641 45.3698C70.8641 46.2576 70.4741 46.7587 69.5895 46.7587H68.6792ZM69.0318 46.4617H69.6184C69.8598 46.4617 70.5105 46.3944 70.5105 45.4179C70.5105 44.7864 70.2765 44.404 69.6258 44.404H69.0318V46.4617ZM63.1887 46.7587V44.404H62.3041V44.1069H64.4259V44.404H63.5413V46.7544L63.1887 46.7587ZM61.5936 46.7587L60.2078 44.6315H60.2004V46.7598H59.8659V44.1069H60.2378L61.6352 46.2576H61.6427V44.1069H61.9771V46.7598L61.5936 46.7587ZM57.5657 46.7587V44.1069H59.3969V44.404H57.9182V45.2469H59.2965V45.5397H57.9182V46.4574H59.4087V46.7544L57.5657 46.7587ZM56.6041 46.7587V44.5525L55.7761 46.7598H55.4748L54.6436 44.5525H54.6361V46.7598H54.3017V44.1069H54.7889L55.6244 46.3356L56.4599 44.1069H56.9428V46.7598L56.6041 46.7587ZM53.604 46.7587L53.3145 45.9606H52.1927L51.8956 46.7587H51.5313L52.5677 44.1069H52.9576L53.994 46.7587H53.604ZM52.3091 45.6636H53.2087L52.7653 44.4264H52.7589L52.3091 45.6636ZM50.2877 46.7598V44.404H49.4031V44.1069H51.5238V44.404H50.6392V46.7544L50.2877 46.7598ZM48.8603 46.7598C48.7599 46.6529 48.8154 46.3655 48.7642 46.1059C48.7129 45.8463 48.6637 45.6273 48.3218 45.6273H47.4586V46.7598H47.106V44.1069H48.355C48.856 44.1069 49.1616 44.374 49.1616 44.8014C49.177 44.95 49.1392 45.0992 49.0549 45.2224C48.9705 45.3457 48.8452 45.435 48.7011 45.4745V45.482C49.0088 45.5407 49.0686 45.7715 49.0986 46.0279C49.079 46.2818 49.1332 46.5359 49.2545 46.7598H48.8603ZM47.4586 45.326H48.1947C48.5216 45.326 48.8069 45.2405 48.8069 44.8538C48.8122 44.7915 48.8035 44.7288 48.7814 44.6703C48.7593 44.6118 48.7243 44.5591 48.6791 44.5159C48.6339 44.4727 48.5796 44.4403 48.5202 44.4209C48.4607 44.4015 48.3977 44.3957 48.3357 44.404H47.4586V45.326ZM46.4211 46.7598L46.1348 45.9606H45.0087L44.7117 46.7587H44.3484L45.3869 44.1069H45.7769L46.8132 46.7587L46.4211 46.7598ZM45.1209 45.6636H46.0205L45.5771 44.4264H45.5696L45.1209 45.6636ZM42.2212 46.7598V44.1069H43.3847C43.4923 44.0928 43.6016 44.1031 43.7046 44.137C43.8076 44.171 43.9016 44.2276 43.9797 44.3029C44.0578 44.3781 44.118 44.4699 44.1557 44.5716C44.1935 44.6733 44.2079 44.7821 44.1978 44.8901C44.2082 44.9982 44.1941 45.1072 44.1565 45.2091C44.1189 45.311 44.0588 45.4031 43.9806 45.4785C43.9024 45.5539 43.8083 45.6107 43.7051 45.6446C43.6019 45.6785 43.4924 45.6886 43.3847 45.6743H42.5749V46.7598H42.2212ZM42.5738 45.3783H43.2651C43.6657 45.3783 43.8452 45.2074 43.8452 44.8911C43.8452 44.5749 43.6668 44.404 43.2651 44.404H42.5749L42.5738 45.3783ZM39.9167 46.7598V44.1069H41.749V44.404H40.2693V45.2469H41.6475V45.5397H40.2693V46.4574H41.7597V46.7544L39.9167 46.7598ZM37.267 46.7598V44.1069H38.1773C38.3492 44.0834 38.5242 44.0998 38.6887 44.1547C38.8533 44.2097 39.003 44.3018 39.1262 44.4239C39.2495 44.546 39.3429 44.6948 39.3994 44.8588C39.4559 45.0229 39.4739 45.1977 39.4519 45.3698C39.4519 46.2576 39.062 46.7587 38.1773 46.7587L37.267 46.7598ZM37.6196 46.4628H38.2072C38.4487 46.4628 39.0994 46.3955 39.0994 45.4189C39.0994 44.7918 38.8697 44.404 38.2147 44.404H37.6196V46.4628Z" fill="black"/>
</g>
<defs>
<clipPath id="clip0_280_4151">
<rect width="111.738" height="52.3145" fill="white"/>
</clipPath>
</defs>
</svg>
