<svg width="148" height="56" viewBox="0 0 148 56" fill="none" xmlns="http://www.w3.org/2000/svg">
<g clip-path="url(#clip0_137_7350)">
<mask id="mask0_137_7350" style="mask-type:luminance" maskUnits="userSpaceOnUse" x="0" y="0" width="56" height="56">
<path d="M56 0H0V56H56V0Z" fill="white"/>
</mask>
<g mask="url(#mask0_137_7350)">
<path d="M36.8853 9.33154L32.0351 18.6633H159.715V9.33154H36.8853Z" fill="#44D9CB"/>
<path d="M27.3311 28L22.4809 37.3318H159.714V28H27.3311Z" fill="#44D9CB"/>
<path d="M17.7784 46.668L12.9282 55.9997H159.715V46.668H17.7784Z" fill="#44D9CB"/>
<path d="M-105.75 0V9.33178H36.8465L41.6702 0H-105.75Z" fill="#003CA7"/>
<path d="M-105.75 18.6685V28.0002H27.2938L32.116 18.6685H-105.75Z" fill="#003CA7"/>
<path d="M-105.75 37.3364V46.6682H17.7396L22.5633 37.3364H-105.748H-105.75Z" fill="#003CA7"/>
</g>
<path d="M74.6667 20.3701V24.0692H80.2869V37.0161H84.6844V24.0692H90.3824V20.3701H74.6667Z" fill="black"/>
<path d="M98.7669 20.0527C94.0053 20.0527 90.2596 23.5667 90.2596 28.6923C90.2596 33.8178 94.0069 37.3334 98.7669 37.3334C103.527 37.3334 107.274 33.8178 107.274 28.6923C107.274 23.5667 103.528 20.0527 98.7669 20.0527ZM98.7669 33.3698C96.3464 33.3698 94.8127 31.5203 94.8127 28.6923C94.8127 25.8643 96.348 24.0147 98.7669 24.0147C101.186 24.0147 102.723 25.8643 102.723 28.6923C102.723 31.5203 101.187 33.3698 98.7669 33.3698Z" fill="black"/>
<path d="M116.251 20.3701H109.044V37.0161H113.44V31.8112H116.251C120.543 31.8112 123.041 29.7766 123.041 26.0775C123.041 22.3783 120.543 20.3701 116.251 20.3701ZM116.043 28.2163H113.44V23.9635H116.043C118.02 23.9635 118.774 24.7039 118.774 26.1039C118.774 27.5039 118.02 28.2179 116.043 28.2179" fill="black"/>
<path d="M132.382 20.0527C127.621 20.0527 123.874 23.5667 123.874 28.6923C123.874 33.8178 127.621 37.3318 132.382 37.3318C137.144 37.3318 140.89 33.8163 140.89 28.6923C140.89 23.5683 137.142 20.0527 132.382 20.0527ZM132.382 33.3698C129.962 33.3698 128.427 31.5203 128.427 28.6923C128.427 25.8643 129.962 24.0147 132.382 24.0147C134.803 24.0147 136.337 25.8643 136.337 28.6923C136.337 31.5203 134.801 33.3698 132.382 33.3698Z" fill="black"/>
<path d="M146.09 24.4952C146.941 23.8917 147.445 22.9117 147.442 21.8679C147.467 20.1272 146.074 18.6961 144.334 18.6712C142.593 18.6463 141.162 20.0386 141.137 21.7792C141.137 21.8088 141.137 21.8383 141.137 21.8679C141.136 22.7514 141.496 23.5977 142.137 24.2059L144.287 26.3883L145.656 24.9977L143.519 22.8261L143.522 22.8308C143.363 22.683 143.068 22.2568 143.068 21.8679C143.068 21.1928 143.614 20.6468 144.289 20.6468C144.964 20.6468 145.51 21.1928 145.51 21.8679C145.51 22.4232 145.085 22.9786 144.712 23.103L146.088 24.4952H146.09Z" fill="black"/>
</g>
<defs>
<clipPath id="clip0_137_7350">
<rect width="147.442" height="56" fill="white"/>
</clipPath>
</defs>
</svg>
