<svg width="223" height="57" viewBox="0 0 223 57" fill="none" xmlns="http://www.w3.org/2000/svg">
<g clip-path="url(#clip0_137_7340)">
<path d="M0 5.19922V16.4937H17.1627V56.0323H30.5892V16.4937H47.9904V5.19922H0Z" fill="black"/>
<path d="M73.5933 4.22949C59.0533 4.22949 47.613 14.9614 47.613 30.6148C47.613 46.2682 59.0533 57.0002 73.5933 57.0002C88.1332 57.0002 99.5735 46.2682 99.5735 30.6148C99.5735 14.9614 88.1355 4.22949 73.5933 4.22949ZM73.5933 44.8978C66.2041 44.8978 61.5187 39.2494 61.5187 30.6148C61.5187 21.9802 66.2041 16.3318 73.5933 16.3318C80.9824 16.3318 85.6725 21.9802 85.6725 30.6148C85.6725 39.2494 80.9824 44.8978 73.5933 44.8978Z" fill="black"/>
<path d="M126.987 5.19922H104.976V56.03H118.403V40.1358H126.987C140.094 40.1358 147.721 33.9226 147.721 22.6282C147.721 11.3337 140.094 5.19922 126.987 5.19922ZM126.35 29.1608H118.405V16.1719H126.35C132.387 16.1719 134.691 18.4312 134.691 22.7069C134.691 26.9825 132.387 29.1608 126.35 29.1608Z" fill="black"/>
<path d="M176.246 4.22949C161.703 4.22949 150.263 14.9614 150.263 30.6148C150.263 46.2682 161.703 57.0002 176.246 57.0002C190.788 57.0002 202.223 46.2682 202.223 30.6148C202.223 14.9614 190.781 4.22949 176.246 4.22949ZM176.246 44.8978C168.854 44.8978 164.166 39.2494 164.166 30.6148C164.166 21.9802 168.852 16.3318 176.246 16.3318C183.639 16.3318 188.32 21.9802 188.32 30.6148C188.32 39.2494 183.63 44.8978 176.246 44.8978Z" fill="black"/>
<path d="M218.104 17.7993C220.701 15.9544 222.24 12.9635 222.231 9.77818C222.231 4.37749 217.923 0 212.608 0C207.293 0 202.983 4.37749 202.983 9.77818C202.976 12.4774 204.082 15.0608 206.038 16.9197L212.604 23.5843L216.782 19.3387L210.254 12.7065L210.265 12.7204C209.782 12.269 208.879 10.968 208.879 9.77818C208.846 7.72022 210.49 6.02339 212.548 5.99098C214.606 5.95858 216.303 7.60216 216.335 9.66012C216.335 9.69947 216.335 9.73882 216.335 9.77818C216.335 11.475 215.039 13.1672 213.898 13.5515L218.106 17.7993H218.104Z" fill="black"/>
</g>
<defs>
<clipPath id="clip0_137_7340">
<rect width="222.231" height="57" fill="white"/>
</clipPath>
</defs>
</svg>
